<?xml version="1.0" encoding="UTF-8" standalone="no"?>
<svg
   xmlns:dc="http://purl.org/dc/elements/1.1/"
   xmlns:cc="http://creativecommons.org/ns#"
   xmlns:rdf="http://www.w3.org/1999/02/22-rdf-syntax-ns#"
   xmlns:svg="http://www.w3.org/2000/svg"
   xmlns="http://www.w3.org/2000/svg"
   xmlns:sodipodi="http://sodipodi.sourceforge.net/DTD/sodipodi-0.dtd"
   xmlns:inkscape="http://www.inkscape.org/namespaces/inkscape"
   version="1.1"
   id="svg2"
   xml:space="preserve"
   width="2829.3333"
   height="2829.3333"
   viewBox="0 0 2829.3333 2829.3333"
   sodipodi:docname="2047_U1RVRElPIFNNIDE5MzMtMDY.eps"><metadata
     id="metadata8"><rdf:RDF><cc:Work
         rdf:about=""><dc:format>image/svg+xml</dc:format><dc:type
           rdf:resource="http://purl.org/dc/dcmitype/StillImage" /></cc:Work></rdf:RDF></metadata><defs
     id="defs6" /><sodipodi:namedview
     pagecolor="#ffffff"
     bordercolor="#666666"
     borderopacity="1"
     objecttolerance="10"
     gridtolerance="10"
     guidetolerance="10"
     inkscape:pageopacity="0"
     inkscape:pageshadow="2"
     inkscape:window-width="640"
     inkscape:window-height="480"
     id="namedview4" /><g
     id="g10"
     inkscape:groupmode="layer"
     inkscape:label="ink_ext_XXXXXX"
     transform="matrix(1.3333333,0,0,-1.3333333,0,2829.3333)"><g
       id="g12"
       transform="scale(0.1)"><path
         d="m 13494.6,12326.2 h -79.6 c -0.1,-330.7 -133.9,-629.4 -350.5,-846.2 -216.9,-216.7 -515.5,-350.5 -846.2,-350.5 -330.7,0 -629.4,133.8 -846.2,350.5 -216.7,216.8 -350.5,515.5 -350.5,846.2 0,330.7 133.8,629.4 350.5,846.2 216.8,216.7 515.5,350.5 846.2,350.6 330.7,-0.1 629.3,-133.9 846.2,-350.6 216.6,-216.8 350.4,-515.5 350.5,-846.2 h 79.6 79.7 c 0,749 -607.1,1356 -1356,1356.1 -749,-0.1 -1356,-607.1 -1356,-1356.1 0,-749 607.1,-1356 1356,-1356 748.9,0 1356,607 1356,1356 h -79.7"
         style="fill:#4091ca;fill-opacity:1;fill-rule:nonzero;stroke:none"
         id="path14" /><path
         d="m 10190.4,12326.2 h -79.7 c 0,-330.7 -133.82,-629.4 -350.5,-846.2 -216.84,-216.7 -515.51,-350.5 -846.22,-350.5 -330.74,0 -629.41,133.8 -846.21,350.5 -216.72,216.8 -350.5,515.5 -350.54,846.2 0.04,330.7 133.82,629.4 350.54,846.2 216.8,216.7 515.47,350.5 846.21,350.6 330.71,-0.1 629.38,-133.9 846.22,-350.6 216.68,-216.8 350.5,-515.5 350.5,-846.2 h 79.7 79.6 c 0,749 -607.11,1356 -1356.02,1356.1 -749.02,-0.1 -1356.01,-607.1 -1356.05,-1356.1 0.04,-749 607.03,-1356 1356.05,-1356 748.91,0 1356.02,607 1356.02,1356 h -79.6"
         style="fill:#4091ca;fill-opacity:1;fill-rule:nonzero;stroke:none"
         id="path16" /><path
         d="m 10252.4,12155.9 -4.1,3.3 4,-3.4 0.1,0.1 -4.1,3.3 4,-3.4 c 2.2,2.8 42.2,50.5 103.8,95 30.6,22.3 66.6,43.9 105.1,59.4 38.6,15.5 79.6,25 121.8,25 43.8,-0.1 89.4,-9.7 139.7,-36.4 50.2,-26.6 105.2,-71.2 162.9,-142.9 27.6,-34.3 77.8,-39.7 112.1,-12.1 34.2,27.5 39.6,77.7 12,111.9 -68.5,85.2 -139.6,145.1 -212.2,183.7 -72.3,38.7 -146,55.3 -214.5,55.1 -68.5,0 -131.5,-15.9 -186.4,-38.7 -82.6,-34.3 -148.1,-83.6 -194,-124.3 -45.9,-40.7 -72.2,-73.2 -74.3,-75.8 -27.6,-34.2 -22.2,-84.4 12.1,-111.9 34.3,-27.6 84.4,-22.2 112,12.1"
         style="fill:#4091ca;fill-opacity:1;fill-rule:nonzero;stroke:none"
         id="path18" /><path
         d="m 11221.2,8083.2 c 0,0 1764.5,-385 2233.7,-1024.5 0,0 618.3,-893.6 1224.2,-3727.7 0,0 -821.1,-758.2 -2415.2,-159.2 0,0 132.6,3965.3 -1042.7,4911.4"
         style="fill:#47b378;fill-opacity:1;fill-rule:nonzero;stroke:none"
         id="path20" /><path
         d="m 13442,4345.5 c 162.7,3360.9 -2948.8,3987.7 -2948.8,3987.7 0,0 -3111.36,-626.8 -2948.63,-3987.7 L 7883.91,6.80078 H 13264.2 L 13442,4345.5"
         style="fill:#69c97d;fill-opacity:1;fill-rule:nonzero;stroke:none"
         id="path22" /><path
         d="m 9939.53,5605.7 c 19.81,511.3 99.07,1055.2 392.57,1487.7 302.6,445.7 782.7,677.4 1297.9,773.6 -609.2,359.6 -1136.8,466.2 -1136.8,466.2 0,0 -3111.36,-626.8 -2948.63,-3987.7 L 7883.91,6.80078 H 9921.17 L 9939.53,5605.7"
         style="fill:#47b378;fill-opacity:1;fill-rule:nonzero;stroke:none"
         id="path24" /><path
         d="m 7471.72,11357.7 c 108.48,-419.7 -100.2,-836.7 -466.06,-931.3 -365.93,-94.6 -750.54,169 -859.14,588.6 -108.47,419.8 100.2,836.7 466.1,931.3 365.93,94.7 750.54,-168.9 859.1,-588.6"
         style="fill:#f79383;fill-opacity:1;fill-rule:nonzero;stroke:none"
         id="path26" /><path
         d="m 7463.4,11053.4 c -90.08,-296.2 -361.41,-512.7 -677.5,-415.3 -308.83,95.1 -427.31,438.8 -414.3,733.4 6.25,140.7 32.27,286.6 127.54,396.6 80.7,93.1 186.64,151.5 299.34,196.2 -61.57,3.5 -123.91,-2 -185.86,-18 -365.9,-94.6 -574.57,-511.5 -466.1,-931.3 108.6,-419.6 493.21,-683.2 859.14,-588.6 333.4,86.2 536.1,440 487.5,819.6 -1.21,-64.7 -10.5,-129.2 -29.76,-192.6"
         style="fill:#e97c6e;fill-opacity:1;fill-rule:nonzero;stroke:none"
         id="path28" /><path
         d="m 6618.95,11581.1 c 80.7,-22.3 142.42,-75 186.25,-149.2 43.55,-74 67.22,-169.2 67.14,-268.9 0.08,-117.9 -32.93,-241.3 -100.07,-343 -14.54,-22 -8.44,-51.7 13.59,-66.2 22.03,-14.5 51.68,-8.4 66.21,13.6 78.56,119.4 115.78,260.2 115.86,395.6 -0.08,114.5 -26.64,225.6 -80.31,317.3 -53.44,91.5 -135.98,163.7 -243.4,193 -25.47,7 -51.76,-8 -58.71,-33.4 -6.99,-25.5 7.97,-51.8 33.44,-58.8"
         style="fill:#1c1e36;fill-opacity:1;fill-rule:nonzero;stroke:none"
         id="path30" /><path
         d="m 6422.27,11208.6 c 25.93,-26.6 59.06,-39.7 95.58,-49 36.72,-8.9 77.81,-12.7 120.78,-12.8 52.7,0.1 108.09,6 160,17.3 51.92,11.5 100.24,28 139.81,52.1 22.54,13.8 29.57,43.3 15.78,65.7 -13.79,22.6 -43.2,29.6 -65.7,15.8 -25.75,-15.9 -65.75,-30.5 -110.39,-40.2 -44.61,-9.8 -94.03,-15.1 -139.5,-15.1 -37.03,0 -71.56,3.6 -98.12,10.1 -26.68,6.2 -44.42,16.5 -48.99,21.9 -18.16,19.2 -48.39,20 -67.57,1.8 -19.11,-18.2 -19.89,-48.5 -1.68,-67.6"
         style="fill:#1c1e36;fill-opacity:1;fill-rule:nonzero;stroke:none"
         id="path32" /><path
         d="m 13730.9,11716.1 c -59.9,-429.3 195,-819.8 569.4,-872 374.3,-52.2 726.3,253.5 786.3,682.8 59.9,429.4 -195,819.8 -569.4,872 -374.3,52.3 -726.3,-253.5 -786.3,-682.8"
         style="fill:#f79383;fill-opacity:1;fill-rule:nonzero;stroke:none"
         id="path34" /><path
         d="m 13773.9,11414.8 c 123.3,-284.1 417.6,-468.2 720.5,-335.3 296,129.7 374.4,484.8 327.8,775.9 -22.2,139 -64.7,281 -172,379.4 -90.6,83.3 -202.6,129.3 -319.7,160.8 60.8,10.5 123.4,12.2 186.7,3.3 374.4,-52.2 629.3,-442.6 569.4,-872 -60,-429.3 -412,-735 -786.3,-682.8 -341,47.6 -582.8,376 -577.9,758.6 8.6,-64.1 25.2,-127.1 51.5,-187.9"
         style="fill:#e97c6e;fill-opacity:1;fill-rule:nonzero;stroke:none"
         id="path36" /><path
         d="m 14517,12124.1 c -90.9,-36.3 -159.1,-103.6 -203,-185.3 -44,-81.6 -65,-177.7 -65.1,-276.8 0.2,-160.2 54.8,-329.6 165,-461.6 17,-20.2 47.1,-22.9 67.4,-5.9 20.1,16.9 22.8,47.1 5.9,67.3 -94.2,112.3 -142.8,261.8 -142.7,400.2 0,85.6 18.5,166.4 53.6,231.4 35.3,65.2 86.1,114.4 154.5,142 24.5,9.8 36.4,37.7 26.5,62.1 -9.8,24.5 -37.7,36.4 -62.1,26.6 v 0"
         style="fill:#1c1e36;fill-opacity:1;fill-rule:nonzero;stroke:none"
         id="path38" /><path
         d="m 14714.3,11745.3 c -2.8,-3.9 -10.6,-10.9 -23.4,-17.5 -19.3,-10.2 -48.8,-19.6 -82.8,-25.7 -34.1,-6.3 -72.7,-9.6 -111.3,-9.6 -69.5,-0.3 -139.3,11.5 -179.5,30.6 -23.9,11.2 -52.4,0.8 -63.5,-23.1 -11.1,-23.9 -0.8,-52.4 23.2,-63.6 61.4,-28.2 140.3,-39.2 219.8,-39.5 58.6,0 117.1,6.5 168,19.9 25.6,6.8 49.2,15.2 70.5,26.4 21.1,11.2 40.4,24.9 55.3,44.5 15.9,21.1 11.7,51.1 -9.4,67 -21.1,15.9 -51,11.7 -66.9,-9.4"
         style="fill:#1c1e36;fill-opacity:1;fill-rule:nonzero;stroke:none"
         id="path40" /><path
         d="m 11058.8,8027 v 656.8 H 10011.5 V 8027 c 0,0 18,-202.2 523.6,-191 0,0 424.8,-16.9 523.7,191"
         style="fill:#f9ad9a;fill-opacity:1;fill-rule:nonzero;stroke:none"
         id="path42" /><path
         d="m 10440.7,8478.5 c 182,16.6 421.5,43.5 618.1,66.2 v 139.1 h -1047.3 v -640 -16.8 c 0,0 18,-202.2 523.6,-191 0,0 424.8,-16.9 523.7,191 v 16.8 15.6 c -55.2,-67.6 -257,-101.5 -374.3,-75.4 -69.5,15.5 -216.9,16 -271.6,44.2 -97.3,50.2 -73.6,220 -71.9,284.9 1.7,70.8 -41.2,152.6 99.7,165.4"
         style="fill:#f6807f;fill-opacity:1;fill-rule:nonzero;stroke:none"
         id="path44" /><path
         d="M 14087.5,12220.6 C 14196.1,10323.3 12711,8695.2 10770.5,8584.1 8829.84,8473 7168.55,9920.9 7059.92,11818.2 c -108.63,1897.2 1376.49,3525.3 3317.18,3636.4 1940.6,111.1 3601.8,-1336.8 3710.4,-3234"
         style="fill:#f9ad9a;fill-opacity:1;fill-rule:nonzero;stroke:none"
         id="path46" /><path
         d="m 7181.48,11654.2 c 62.23,328.1 232.78,594.7 503.13,790.3 240.08,173.5 514.69,291.8 755.51,463.7 264.61,189 437.34,437.8 446.33,770.9 0.35,14.3 20.85,24.8 29.18,9.7 122.5,-222.7 433.94,-301.8 662.69,-350.6 322.81,-68.8 655.48,-92.6 985.08,-95.4 242.3,-2.1 489.3,1.5 728.9,41.3 397.7,66 776.6,221.5 1109.2,449.1 272.1,186.2 512.5,411.7 723.2,662.9 -687,704.5 -1674.5,1120 -2747.6,1058.5 -1940.69,-111.1 -3425.81,-1739.2 -3317.18,-3636.4 11.68,-204.4 41.49,-403.5 87.62,-596 -1.33,145 6.99,289.4 33.94,432"
         style="fill:#f79383;fill-opacity:1;fill-rule:nonzero;stroke:none"
         id="path48" /><path
         d="m 11284.6,9151.6 c -2735.3,-120 -3464.91,1285.9 -3569.4,3111 -68.13,1189.2 514.76,2268.3 1445.54,2905.6 -1306.79,-563.5 -2185.27,-1875.4 -2100.82,-3350 108.63,-1897.3 1769.92,-3345.2 3710.58,-3234.1 1170.9,67.1 2175.8,686.5 2764.9,1584 -572,-583.4 -1361.1,-977.3 -2250.8,-1016.5"
         style="fill:#f79383;fill-opacity:1;fill-rule:nonzero;stroke:none"
         id="path50" /><path
         d="m 12219.2,14401.8 c -15.9,-159 179.7,-451.2 252.6,-580.7 493.8,-876.6 1588.6,-1161.3 1577.5,-2336.8 0,0 704.4,2190.4 -1032.3,3537.6 0,0 -719,171.7 -797.8,-620.1"
         style="fill:#4a352a;fill-opacity:1;fill-rule:nonzero;stroke:none"
         id="path52" /><path
         d="m 13902.1,12377.9 c -137.6,287.5 -327.8,543.1 -508,804.6 -387.7,562.9 -500.9,1130.4 -299.6,1777.3 -25.3,20.9 -51.1,41.6 -77.5,62.1 0,0 -719,171.7 -797.8,-620.1 -15.9,-159 179.7,-451.2 252.6,-580.7 481.6,-854.8 1534.1,-1147.2 1575.8,-2251.4 11.8,277.2 -23,552.2 -145.5,808.2"
         style="fill:#3f2c23;fill-opacity:1;fill-rule:nonzero;stroke:none"
         id="path54" /><path
         d="m 13124.7,14964.4 c -1321,-2772.4 -4458.61,-925.6 -4458.61,-925.6 107.54,-602.4 -459.25,-919.9 -459.25,-919.9 -999.61,-823.2 -923.09,-2332.3 -923.09,-2332.3 -1511.8,3029.7 283.13,3923.3 283.13,3923.3 0,0 -558.29,1450.1 1488.9,2114.8 0,0 -42.89,-567 5.39,-703.8 0,0 523.01,1270.7 2959.53,1122.2 0,0 133.6,-657.9 -174.3,-1365 0,0 -29.6,557 999.1,498.3 0,0 501.9,-730.9 279.2,-1412"
         style="fill:#4a352a;fill-opacity:1;fill-rule:nonzero;stroke:none"
         id="path56" /><path
         d="m 7604.26,14794.8 0.74,0.7 c 53.52,373.4 227.66,721.2 460.43,1016.1 120.43,152.5 353.2,490.1 598.71,428.4 190.27,-47.8 286.13,-259.2 360.59,-421.6 91.4,-199.3 169.33,-433.7 323.79,-596.5 199.29,480 515.23,860.5 943.08,1162.3 523.9,369.7 1091.5,704.9 1717.8,859.4 -2426.59,143.8 -2948.23,-1122.7 -2948.23,-1122.7 -48.28,136.8 -5.39,703.8 -5.39,703.8 -1805.43,-586.2 -1584.45,-1783.1 -1507.11,-2057.6 20,-5.5 38.32,3.3 55.59,27.7"
         style="fill:#3f2c23;fill-opacity:1;fill-rule:nonzero;stroke:none"
         id="path58" /><path
         d="m 7098.16,11327 c -20.03,-3 -40.74,5.5 -45.86,31.4 -116.83,588.8 -269.33,1295.5 -58.67,1881.2 157.82,438.6 625.63,935.5 498.71,1425.6 -306.6,-201.8 -1412.07,-1127.9 -388.67,-3492.2 -3.9,50.9 -5.35,102.3 -5.51,154"
         style="fill:#3f2c23;fill-opacity:1;fill-rule:nonzero;stroke:none"
         id="path60" /><path
         d="m 10989,13984.5 c -985.2,-19.7 -1761.58,608 -2501.54,1182.1 -116.52,-390.5 -13.67,-812.5 -292.34,-1155.7 -272.82,-336 -609.42,-537.2 -719.26,-983.6 -116.56,-473.7 -244.65,-975.5 -278.16,-1462.9 -17.11,-248.5 0.46,-484.1 53.63,-711.3 10.78,-22.2 21.21,-44.1 32.42,-66.5 0,0 -76.52,1509.1 923.09,2332.3 0,0 566.79,317.5 459.25,919.9 0,0 2980.71,-1753.8 4354.81,725 -515.5,-529.7 -1306.1,-764.7 -2031.9,-779.3"
         style="fill:#3f2c23;fill-opacity:1;fill-rule:nonzero;stroke:none"
         id="path62" /><path
         d="m 9771.56,11094.3 c 16.1,-281 -288.9,-527 -681.25,-549.5 -392.34,-22.5 -723.43,187.1 -739.53,468.2 -16.09,280.9 288.91,526.9 681.25,549.5 392.31,22.4 723.44,-187.2 739.53,-468.2"
         style="fill:#f5796c;fill-opacity:1;fill-rule:nonzero;stroke:none"
         id="path64" /><path
         d="m 13110.4,11285.5 c 16,-281.1 -289,-527 -681.4,-549.5 -392.3,-22.5 -723.4,187 -739.5,468.1 -16.1,281 288.9,527 681.3,549.5 392.4,22.5 723.4,-187.1 739.6,-468.1"
         style="fill:#f5796c;fill-opacity:1;fill-rule:nonzero;stroke:none"
         id="path66" /><path
         d="m 10166.4,11627.4 856.6,49.1 c 0,0 -391.4,-844.9 -856.6,-49.1"
         style="fill:#f5796c;fill-opacity:1;fill-rule:nonzero;stroke:none"
         id="path68" /><path
         d="m 9368.09,12032.5 c 14.21,-248.2 -114.11,-457.3 -286.57,-467.3 -172.46,-9.8 -323.86,183.3 -338.08,431.6 -14.18,248 114.14,457.2 286.6,467.1 172.5,9.9 323.79,-183.3 338.05,-431.4"
         style="fill:#581c13;fill-opacity:1;fill-rule:nonzero;stroke:none"
         id="path70" /><path
         d="m 12394.6,12205.8 c 14.2,-248.3 -114.1,-457.4 -286.6,-467.2 -172.5,-9.9 -323.9,183.2 -338.1,431.4 -14.2,248.2 114.2,457.3 286.6,467.2 172.5,9.9 323.9,-183.3 338.1,-431.4"
         style="fill:#581c13;fill-opacity:1;fill-rule:nonzero;stroke:none"
         id="path72" /><path
         d="m 8913.67,12006.5 c 5.35,-94.1 -66.48,-174.7 -160.47,-180 -93.98,-5.4 -174.49,66.5 -179.92,160.4 -5.35,94 66.45,174.7 160.43,180 93.99,5.5 174.57,-66.4 179.96,-160.4"
         style="fill:#ffffff;fill-opacity:1;fill-rule:nonzero;stroke:none"
         id="path74" /><path
         d="m 12564.8,12215.6 c 5.4,-94.1 -66.5,-174.6 -160.4,-180 -94.2,-5.4 -174.6,66.4 -180.1,160.5 -5.4,93.9 66.5,174.6 160.5,179.9 94,5.4 174.7,-66.5 180,-160.4"
         style="fill:#ffffff;fill-opacity:1;fill-rule:nonzero;stroke:none"
         id="path76" /><path
         d="m 11914.8,13151.5 c 78.6,-157.6 214.1,-268.8 365.3,-339.8 151.5,-71.1 320.6,-104.1 480.6,-104.3 46.1,0 91.6,2.8 135.7,8.4 54.6,7 93.4,56.9 86.4,111.6 -6.9,54.6 -56.9,93.3 -111.5,86.4 -35.4,-4.5 -72.5,-6.9 -110.6,-6.9 -132.1,-0.1 -275.2,28.5 -395.7,85.4 -121.1,57 -217.9,140.2 -271.6,248.3 -24.6,49.2 -84.5,69.3 -133.9,44.7 -49.3,-24.6 -69.3,-84.5 -44.7,-133.8"
         style="fill:#4a352a;fill-opacity:1;fill-rule:nonzero;stroke:none"
         id="path78" /><path
         d="m 8862.38,12983.4 c -16.36,-67.3 -47.89,-129.2 -91.87,-185.8 -65.78,-84.9 -160.31,-157 -266.1,-209.7 -105.58,-52.7 -222.11,-85.8 -327.65,-96.1 -54.85,-5.4 -94.96,-54.1 -89.57,-109 5.35,-54.9 54.18,-94.9 109.06,-89.6 175.55,17.5 361.99,81.4 521.02,188.1 79.37,53.5 151.71,117.9 210.78,193.8 58.98,75.8 104.57,163.5 128.24,261.2 13.01,53.6 -19.84,107.6 -73.4,120.5 -53.55,13 -107.5,-19.9 -120.51,-73.4"
         style="fill:#4a352a;fill-opacity:1;fill-rule:nonzero;stroke:none"
         id="path80" /><path
         d="m 10363.6,10853 c 61.6,38.4 120.5,69.2 178,90 57.6,20.9 113.6,32.1 172.4,32.2 76.4,-0.2 158.8,-18.9 256.3,-67.2 39.4,-19.6 87.2,-3.5 106.8,35.9 19.5,39.4 3.5,87.2 -36,106.8 -114.8,57.2 -223.6,83.8 -327.1,83.8 -79.5,0 -155,-15.6 -226.7,-41.7 -71.9,-26.1 -140.2,-62.4 -207.9,-104.5 -37.4,-23.2 -48.8,-72.4 -25.6,-109.7 23.3,-37.4 72.4,-48.8 109.8,-25.6"
         style="fill:#e14c63;fill-opacity:1;fill-rule:nonzero;stroke:none"
         id="path82" /><path
         d="m 12225.9,13602.6 c -11.8,0 -23.5,-0.1 -35.2,-0.4 -244.3,-137.6 -508.5,-238.3 -783.1,-296.3 -280,-234.2 -458.1,-586.1 -458.1,-979.7 0,-515 305,-958.8 744.2,-1160.5 -2,12.6 -3.4,25.5 -4.2,38.4 -16.1,281 288.9,527 681.3,549.5 19.4,1.1 38.6,1.7 57.5,1.7 318.7,0 586.9,-153 661.8,-368.4 253.4,233.3 412.1,567.8 412.1,939.3 0,168.5 -32.6,329.3 -91.9,476.5 -241.3,231.9 -510.5,448.4 -730.3,716.7 -141.1,53.8 -294.2,83.2 -454.1,83.2 m 534.8,-895.2 c -160,0.2 -329.1,33.2 -480.6,104.3 -151.2,71 -286.7,182.2 -365.3,339.8 -24.6,49.3 -4.6,109.2 44.7,133.8 14.3,7.1 29.5,10.5 44.5,10.5 36.6,0 71.9,-20.2 89.4,-55.2 53.7,-108.1 150.5,-191.3 271.6,-248.3 120.2,-56.7 262.9,-85.4 394.8,-85.4 0.3,0 0.7,0 0.9,0 38.1,0 75.2,2.4 110.6,6.9 4.2,0.5 8.4,0.8 12.6,0.8 49.5,0 92.5,-36.8 98.9,-87.2 7,-54.7 -31.8,-104.6 -86.4,-111.6 -44.1,-5.6 -89.6,-8.4 -135.7,-8.4 m -665.3,-969.2 c -167.2,0 -311.6,189.7 -325.5,431.8 -14.2,248.2 114.2,457.3 286.6,467.2 4.3,0.2 8.5,0.3 12.8,0.3 125.9,0.1 238.8,-107.7 292.8,-264.3 7.4,1.5 15,2.4 22.7,2.8 3.3,0.2 6.6,0.3 9.9,0.3 89.7,0 164.9,-70.1 170.1,-160.7 5.4,-94.1 -66.5,-174.6 -160.4,-180 -3.4,-0.2 -6.7,-0.3 -10,-0.3 -4.4,0 -8.7,0.2 -12.9,0.5 -37,-167.2 -142.5,-289.7 -273.5,-297.2 -4.2,-0.3 -8.4,-0.4 -12.6,-0.4"
         style="fill:#fbccbd;fill-opacity:1;fill-rule:nonzero;stroke:none"
         id="path84" /><path
         d="m 12190.7,13602.2 c -297.7,-8.1 -569.9,-118.1 -783.1,-296.3 274.6,58 538.8,158.7 783.1,296.3"
         style="fill:#fabaab;fill-opacity:1;fill-rule:nonzero;stroke:none"
         id="path86" /><path
         d="m 12680,13519.4 c 219.8,-268.3 489,-484.8 730.3,-716.7 -132.5,329.1 -398.2,590.3 -730.3,716.7"
         style="fill:#5c5646;fill-opacity:1;fill-rule:nonzero;stroke:none"
         id="path88" /><path
         d="m 12428.3,11755.3 c -18.9,0 -38.1,-0.6 -57.5,-1.7 -392.4,-22.5 -697.4,-268.5 -681.3,-549.5 0.8,-12.9 2.2,-25.8 4.2,-38.4 162,-74.4 342.2,-115.9 532.2,-115.9 333.4,0 636.9,127.8 864.2,337.1 -74.9,215.4 -343.1,368.4 -661.8,368.4"
         style="fill:#f8a597;fill-opacity:1;fill-rule:nonzero;stroke:none"
         id="path90" /><path
         d="m 12069.3,12637.5 c -4.3,0 -8.5,-0.1 -12.8,-0.3 -172.4,-9.9 -300.8,-219 -286.6,-467.2 13.9,-242.1 158.3,-431.8 325.5,-431.8 4.2,0 8.4,0.1 12.6,0.4 131,7.5 236.5,130 273.5,297.2 -83.9,6.4 -152.2,73.9 -157.2,160.3 -4.9,86.2 55.2,161.2 137.8,177.1 -54,156.6 -166.9,264.4 -292.8,264.3"
         style="fill:#7f4019;fill-opacity:1;fill-rule:nonzero;stroke:none"
         id="path92" /><path
         d="m 12394.7,12376.3 c -3.3,0 -6.6,-0.1 -9.9,-0.3 -7.7,-0.4 -15.3,-1.3 -22.7,-2.8 -82.6,-15.9 -142.7,-90.9 -137.8,-177.1 5,-86.4 73.3,-153.9 157.2,-160.3 4.2,-0.3 8.5,-0.5 12.9,-0.5 3.3,0 6.6,0.1 10,0.3 93.9,5.4 165.8,85.9 160.4,180 -5.2,90.6 -80.4,160.7 -170.1,160.7"
         style="fill:#ffffff;fill-opacity:1;fill-rule:nonzero;stroke:none"
         id="path94" /><path
         d="m 12004,13295.8 c -15,0 -30.2,-3.4 -44.5,-10.5 -49.3,-24.6 -69.3,-84.5 -44.7,-133.8 78.6,-157.6 214.1,-268.8 365.3,-339.8 151.5,-71.1 320.6,-104.1 480.6,-104.3 46.1,0 91.6,2.8 135.7,8.4 54.6,7 93.4,56.9 86.4,111.6 -6.4,50.4 -49.4,87.2 -98.9,87.2 -4.2,0 -8.4,-0.3 -12.6,-0.8 -35.4,-4.5 -72.5,-6.9 -110.6,-6.9 -0.2,0 -0.6,0 -0.9,0 -131.9,0 -274.6,28.7 -394.8,85.4 -121.1,57 -217.9,140.2 -271.6,248.3 -17.5,35 -52.8,55.2 -89.4,55.2"
         style="fill:#655e4d;fill-opacity:1;fill-rule:nonzero;stroke:none"
         id="path96" /><path
         d="m 13502.2,12326.2 h -79.6 c 0,-330.7 -133.8,-629.4 -350.5,-846.2 -216.8,-216.7 -515.5,-350.5 -846.2,-350.5 -330.8,0 -629.5,133.8 -846.3,350.5 -216.6,216.8 -350.4,515.5 -350.5,846.2 0.1,330.7 133.9,629.4 350.5,846.2 216.9,216.7 515.5,350.5 846.3,350.6 330.7,-0.1 629.4,-133.9 846.2,-350.6 216.7,-216.8 350.5,-515.5 350.5,-846.2 h 79.6 79.8 c -0.2,749 -607.2,1356 -1356.1,1356.1 -749,-0.1 -1356.1,-607.1 -1356.1,-1356.1 0,-749 607.1,-1356 1356.1,-1356 748.9,0 1355.9,607 1356.1,1356 h -79.8"
         style="fill:#4091ca;fill-opacity:1;fill-rule:nonzero;stroke:none"
         id="path98" /><path
         d="m 8921.56,13602.6 c -13.47,0 -26.87,-0.2 -40.23,-0.6 -31.6,-294.8 -197.42,-519.7 -441.21,-693.8 -232.42,-165.9 -496.37,-281.9 -730.32,-445.7 -0.23,-66.3 1.53,-132.9 5.4,-199.9 8.94,-156.3 22.42,-309.4 41.44,-458.8 124.53,-277.4 345.2,-502.1 619.61,-631.9 80.66,209.4 339.92,372.4 655.78,390.6 19.26,1.1 38.44,1.6 57.42,1.6 260,0 486.41,-101.8 601.72,-256.2 307.85,233 506.83,602.4 506.83,1018.3 0,394.8 -179.2,747.7 -460.73,981.8 -53.21,8.9 -106.22,19 -158.95,30.2 -195.86,41.8 -452.38,105.8 -598.98,263.1 -19.14,0.9 -38.4,1.3 -57.78,1.3 m -735.15,-1309.9 c -50.75,0 -94.18,38.6 -99.22,90.1 -5.39,54.9 34.72,103.6 89.57,109 105.54,10.3 222.07,43.4 327.65,96.1 105.79,52.7 200.32,124.8 266.1,209.7 43.98,56.6 75.51,118.5 91.87,185.8 11.1,45.7 51.92,76.3 96.92,76.3 7.77,0 15.7,-0.9 23.59,-2.9 53.56,-12.9 86.41,-66.9 73.4,-120.5 -23.67,-97.7 -69.26,-185.4 -128.24,-261.2 -59.07,-75.9 -131.41,-140.3 -210.78,-193.8 -159.03,-106.7 -345.47,-170.6 -521.02,-188.1 -3.32,-0.3 -6.6,-0.5 -9.84,-0.5 m 570.15,-125.9 c 36.96,167.1 142.46,289.6 273.48,297.1 4.26,0.2 8.48,0.4 12.73,0.4 167.15,0 311.45,-189.8 325.32,-431.8 14.21,-248.2 -114.11,-457.3 -286.57,-467.3 -4.22,-0.2 -8.47,-0.3 -12.65,-0.3 -125.98,0 -238.99,107.7 -292.97,264.4 -7.42,-1.4 -15,-2.4 -22.7,-2.8 -3.32,-0.2 -6.6,-0.3 -9.88,-0.3 -89.69,0 -164.8,70.1 -170.04,160.7 -5.35,94 66.45,174.7 160.43,180 3.36,0.3 6.68,0.4 9.96,0.4 4.34,0 8.63,-0.2 12.89,-0.5"
         style="fill:#fbccbd;fill-opacity:1;fill-rule:nonzero;stroke:none"
         id="path100" /><path
         d="m 8881.33,13602 c -93.36,-2.9 -184.22,-15.8 -271.49,-37.7 -131.52,-293.3 -403,-445.4 -403,-445.4 -208.79,-172 -370.59,-373.8 -496.02,-585.5 -0.59,-23.6 -0.94,-47.3 -1.02,-70.9 233.95,163.8 497.9,279.8 730.32,445.7 243.79,174.1 409.61,399 441.21,693.8 m 98.01,-0.7 c 146.6,-157.3 403.12,-221.3 598.98,-263.1 52.73,-11.2 105.74,-21.3 158.95,-30.2 -207.39,172.5 -470.28,280.5 -757.93,293.3"
         style="fill:#fabaab;fill-opacity:1;fill-rule:nonzero;stroke:none"
         id="path102" /><path
         d="m 7710.82,12533.4 c -21.8,-36.9 -42.46,-74 -62.11,-111.2 -2.38,-31.7 -3.55,-63.8 -3.55,-96 0,-186.1 39.84,-363 111.48,-522.4 -19.02,149.4 -32.5,302.5 -41.44,458.8 -3.87,67 -5.63,133.6 -5.4,199.9 0.08,23.6 0.43,47.3 1.02,70.9"
         style="fill:#fabaab;fill-opacity:1;fill-rule:nonzero;stroke:none"
         id="path104" /><path
         d="m 8609.84,13564.3 c -524.33,-131.6 -919.92,-587.5 -961.13,-1142.1 132.7,251.9 313.05,494.8 558.13,696.7 0,0 271.48,152.1 403,445.4"
         style="fill:#5c5646;fill-opacity:1;fill-rule:nonzero;stroke:none"
         id="path106" /><path
         d="m 9089.45,11564.1 c -18.98,0 -38.16,-0.5 -57.42,-1.6 -315.86,-18.2 -575.12,-181.2 -655.78,-390.6 165.35,-78.3 350.23,-122.1 545.31,-122.1 289.07,0 555.63,96.1 769.61,258.1 -115.31,154.4 -341.72,256.2 -601.72,256.2"
         style="fill:#f8a597;fill-opacity:1;fill-rule:nonzero;stroke:none"
         id="path108" /><path
         d="m 9042.77,12464.3 c -4.25,0 -8.47,-0.2 -12.73,-0.4 -131.02,-7.5 -236.52,-130 -273.48,-297.1 83.87,-6.4 152.15,-74 157.11,-160.3 4.92,-86.3 -55.19,-161.3 -137.77,-177.2 53.98,-156.7 166.99,-264.4 292.97,-264.4 4.18,0 8.43,0.1 12.65,0.3 172.46,10 300.78,219.1 286.57,467.3 -13.87,242 -158.17,431.8 -325.32,431.8"
         style="fill:#7f4019;fill-opacity:1;fill-rule:nonzero;stroke:none"
         id="path110" /><path
         d="m 8743.67,12167.3 c -3.28,0 -6.6,-0.1 -9.96,-0.4 -93.98,-5.3 -165.78,-86 -160.43,-180 5.24,-90.6 80.35,-160.7 170.04,-160.7 3.28,0 6.56,0.1 9.88,0.3 7.7,0.4 15.28,1.4 22.7,2.8 82.58,15.9 142.69,90.9 137.77,177.2 -4.96,86.3 -73.24,153.9 -157.11,160.3 -4.26,0.3 -8.55,0.5 -12.89,0.5"
         style="fill:#ffffff;fill-opacity:1;fill-rule:nonzero;stroke:none"
         id="path112" /><path
         d="m 8959.3,13059.7 c -45,0 -85.82,-30.6 -96.92,-76.3 -16.36,-67.3 -47.89,-129.2 -91.87,-185.8 -65.78,-84.9 -160.31,-157 -266.1,-209.7 -105.58,-52.7 -222.11,-85.8 -327.65,-96.1 -54.85,-5.4 -94.96,-54.1 -89.57,-109 5.04,-51.5 48.47,-90.1 99.22,-90.1 3.24,0 6.52,0.2 9.84,0.5 175.55,17.5 361.99,81.4 521.02,188.1 79.37,53.5 151.71,117.9 210.78,193.8 58.98,75.8 104.57,163.5 128.24,261.2 13.01,53.6 -19.84,107.6 -73.4,120.5 -7.89,2 -15.82,2.9 -23.59,2.9"
         style="fill:#655e4d;fill-opacity:1;fill-rule:nonzero;stroke:none"
         id="path114" /><path
         d="m 10197.9,12326.2 h -79.6 c -0.1,-330.7 -133.85,-629.4 -350.53,-846.2 -216.79,-216.7 -515.47,-350.5 -846.21,-350.5 -330.7,0 -629.41,133.8 -846.21,350.5 -216.72,216.8 -350.51,515.5 -350.55,846.2 0.04,330.7 133.83,629.4 350.55,846.2 216.8,216.7 515.51,350.5 846.21,350.6 330.74,-0.1 629.42,-133.9 846.21,-350.6 216.68,-216.8 350.43,-515.5 350.53,-846.2 h 79.6 79.7 c -0.1,749 -607.05,1356 -1356.04,1356.1 -748.94,-0.1 -1356.01,-607.1 -1356.05,-1356.1 0.04,-749 607.11,-1356 1356.05,-1356 748.99,0 1355.94,607 1356.04,1356 h -79.7"
         style="fill:#4091ca;fill-opacity:1;fill-rule:nonzero;stroke:none"
         id="path116" /><path
         d="m 10260,12155.9 -4.3,3.4 4.3,-3.5 v 0.1 l -4.3,3.4 4.3,-3.5 c 2.1,2.8 42.1,50.4 103.6,95 30.7,22.3 66.6,43.9 105.2,59.3 38.6,15.6 79.6,25.1 121.8,25.1 43.8,-0.1 89.4,-9.7 139.7,-36.4 50.1,-26.7 105.2,-71.2 162.9,-142.9 27.6,-34.3 77.7,-39.7 112,-12.1 34.3,27.5 39.7,77.7 12.1,111.9 -68.5,85.2 -139.6,145.1 -212.1,183.7 -72.5,38.7 -146.1,55.3 -214.6,55.1 -68.5,0 -131.5,-15.9 -186.5,-38.7 -82.5,-34.3 -148,-83.6 -193.9,-124.3 -45.9,-40.7 -72.3,-73.2 -74.3,-75.7 -27.6,-34.3 -22.2,-84.5 12.1,-112 34.3,-27.6 84.4,-22.2 112,12.1 v 0"
         style="fill:#4091ca;fill-opacity:1;fill-rule:nonzero;stroke:none"
         id="path118" /><path
         d="m 13505.5,12246.6 688.3,28 c 43.9,1.7 78.2,38.8 76.3,82.8 -1.8,43.9 -38.8,78.1 -82.8,76.3 l -688.3,-27.9 c -43.9,-1.8 -78.1,-38.9 -76.3,-82.8 1.8,-44 38.8,-78.2 82.8,-76.4"
         style="fill:#4091ca;fill-opacity:1;fill-rule:nonzero;stroke:none"
         id="path120" /><path
         d="m 6864.41,11890.6 784.26,110.3 c 43.56,6.1 73.91,46.4 67.78,90 -6.14,43.5 -46.41,73.9 -89.97,67.7 l -784.25,-110.3 c -43.6,-6.1 -73.91,-46.4 -67.82,-89.9 6.18,-43.6 46.45,-74 90,-67.8"
         style="fill:#4091ca;fill-opacity:1;fill-rule:nonzero;stroke:none"
         id="path122" /><path
         d="M 12845.5,559.398 H 8627.27 V 5832.5 H 12845.5 V 559.398"
         style="fill:#ed3947;fill-opacity:1;fill-rule:nonzero;stroke:none"
         id="path124" /><path
         d="M 9772.15,559.398 H 8627.27 V 5832.5 H 9772.15 V 559.398"
         style="fill:#ce313d;fill-opacity:1;fill-rule:nonzero;stroke:none"
         id="path126" /><path
         d="m 7788.2,1839.1 c 2434.4,-546.6 4232.4,763.6 4232.4,763.6 l -143.1,624.8 c 0,0 -1711.1,-635.7 -3576.87,22.4 0,0 -871.33,1001.4 -1526.53,286.7 0,0 -399.84,-788.9 -287.19,-965.6 0,0 384.93,-467.6 1301.29,-731.9"
         style="fill:#f78f7d;fill-opacity:1;fill-rule:nonzero;stroke:none"
         id="path128" /><path
         d="m 11792.4,3007.7 c 132.5,326.2 68.8,459.4 1107.2,830.7 228.7,-177.3 153.8,-195.8 -141.4,-394.5 2.1,1.5 92.1,76 100.2,80.7 125.1,71.8 194.7,147 269.9,136.5 125.5,-17.7 184.2,-172.1 250.8,-427 10.9,-42 -56.6,-175.4 -41.4,-219.3 15.7,-44.7 -49.5,-160.3 -48.4,-212.5 2.3,-91.4 -60.3,-74.9 -112.8,-143.2 -25.2,-32.9 -42.4,-79.2 -72.9,-106.4 -198.3,-177.1 -503.6,-78.4 -733.3,-37.6 -180.3,32.5 -447.5,78.2 -563.7,240.4 -51.6,71.6 -46.4,172.6 -14.2,252.2"
         style="fill:#f78f7d;fill-opacity:1;fill-rule:nonzero;stroke:none"
         id="path130" /><path
         d="m 9772.15,8083.2 c 0,0 -1764.57,-385 -2233.75,-1024.5 0,0 -618.28,-893.6 -1224.14,-3727.7 0,0 621.37,-624 2215.51,-25 0,0 -486.57,3803.4 1242.38,4777.2"
         style="fill:#47b378;fill-opacity:1;fill-rule:nonzero;stroke:none"
         id="path132" /><path
         d="M 13377.6,1849.7 C 10294.9,1839.1 8913.98,3916.4 8913.98,3916.4 l 355.16,533.6 c 0,0 1360.56,-1168.3 4179.06,-653 0,0 944.7,251.2 1304.2,-649.3 0,0 94.6,-879.3 -73.3,-1004.8 0,0 -350.9,-370.5 -1301.5,-293.2"
         style="fill:#f8a18f;fill-opacity:1;fill-rule:nonzero;stroke:none"
         id="path134" /><path
         d="m 9270.86,4214.3 c -8.44,352 98.36,454 -741.29,1169 -276.64,-84.8 -213.2,-128.6 -7.42,-419 -1.52,2 -59.26,103.6 -65.12,110.9 -91.6,111.5 -130.08,206.5 -204.1,223.3 -123.63,27.8 -233.24,-95.8 -385.7,-310.5 -25.04,-35.5 -9.18,-184.1 -39.03,-219.7 -30.54,-36.3 -10.47,-167.5 -30,-216 -34.57,-84.6 29.89,-91.4 54.77,-173.8 11.95,-39.7 11.64,-89 30.51,-125.3 122.77,-235.9 443.2,-251.8 672.46,-294.9 180.19,-33.5 446.21,-85.4 612.34,25.2 73.6,48.7 104.45,145 102.58,230.8"
         style="fill:#f8a18f;fill-opacity:1;fill-rule:nonzero;stroke:none"
         id="path136" /></g></g></svg>
