<?xml version="1.0" encoding="UTF-8" standalone="no"?>
<svg
   xmlns:dc="http://purl.org/dc/elements/1.1/"
   xmlns:cc="http://creativecommons.org/ns#"
   xmlns:rdf="http://www.w3.org/1999/02/22-rdf-syntax-ns#"
   xmlns:svg="http://www.w3.org/2000/svg"
   xmlns="http://www.w3.org/2000/svg"
   xmlns:sodipodi="http://sodipodi.sourceforge.net/DTD/sodipodi-0.dtd"
   xmlns:inkscape="http://www.inkscape.org/namespaces/inkscape"
   version="1.1"
   id="svg2"
   xml:space="preserve"
   width="4666.6665"
   height="2666.6667"
   viewBox="0 0 4666.6665 2666.6667"
   sodipodi:docname="5294.eps"><metadata
     id="metadata8"><rdf:RDF><cc:Work
         rdf:about=""><dc:format>image/svg+xml</dc:format><dc:type
           rdf:resource="http://purl.org/dc/dcmitype/StillImage" /></cc:Work></rdf:RDF></metadata><defs
     id="defs6" /><sodipodi:namedview
     pagecolor="#ffffff"
     bordercolor="#666666"
     borderopacity="1"
     objecttolerance="10"
     gridtolerance="10"
     guidetolerance="10"
     inkscape:pageopacity="0"
     inkscape:pageshadow="2"
     inkscape:window-width="640"
     inkscape:window-height="480"
     id="namedview4" /><g
     id="g10"
     inkscape:groupmode="layer"
     inkscape:label="ink_ext_XXXXXX"
     transform="matrix(1.3333333,0,0,-1.3333333,0,2666.6667)"><g
       id="g12"
       transform="scale(0.1)"><path
         d="M 35000,0 H 0 V 20000 H 35000 V 0"
         style="fill:#ffffff;fill-opacity:1;fill-rule:nonzero;stroke:none"
         id="path14" /><path
         d="m 19626.9,12012.8 234,226.4 c -73.2,409.4 -457.3,606.4 -710.2,633.2 -681.1,72.3 -1028.2,-395.9 -1174.3,-1146.9 -266.7,-1370.7 69.1,-7126.5 69.1,-7126.5 25.1,152.9 1874.8,5932.9 1827.4,7521 l -246,-107.2"
         style="fill:#96d9c9;fill-opacity:1;fill-rule:nonzero;stroke:none"
         id="path16" /><path
         d="m 10317.2,7493 -29,-214.7 -69.5,248.4 c -195.3,61.5 -365.02,82.6 -499.49,52 -1201.7,-273.1 874.89,-1925.8 874.89,-1925.8 0,0 -661.82,415.5 -1302.76,678.6 l -8.14,-217.7 -81.98,246 c -498.04,194.9 -960.09,285 -1052.42,3.5 -86.92,-265 88,-515.8 389,-739.2 l 346,-12.1 -203.96,-85.6 c 695.13,-445.2 1845.06,-763.7 2241.96,-836.1 -379.7,59.6 -1307.94,180.4 -1858.06,61.7 l 86.33,-143.7 -217.23,108.6 C 8740.29,4654.8 8620.7,4552 8633.58,4390.1 8658.2,4080.5 10001.4,3969 10001.4,3969 l 4907,45.6 27.3,-13.7 c 0,0 -3036.6,2912.6 -4618.5,3492.1"
         style="fill:#3c8f7c;fill-opacity:1;fill-rule:nonzero;stroke:none"
         id="path18" /><path
         d="m 25710.1,4629.1 c -94.7,439.4 -1055.6,568.6 -2280.5,327.7 436.1,149 1035.3,488.3 1345.7,643.3 l -212.3,135.1 426.3,-19.9 c 348.7,204.2 523,404.7 409.1,586.1 -85.1,135.4 -271.7,191.8 -524.6,191.1 l -133.3,-238.4 27.7,235.1 c -638.1,-36.9 -782.8,67.3 -1643.6,-280.6 537.9,279.2 615.6,365.8 650.9,477.9 l -291.3,127.5 h 341.4 c 275.9,296.8 713.7,884.1 532.1,1154.7 -149.8,223.4 -807.6,-86.6 -1227.5,-247.7 l -178.6,-401.8 36.2,343.3 c -1335,-581.5 -882.5,-114.9 -882.5,-114.9 0,0 1393.6,2882.8 572.6,2818 -324.1,-25.6 -672.6,-220.9 -1014.9,-533.9 l -8.7,-286.6 -101.8,181.9 c -249.3,-244.4 -496.2,-540.4 -731.8,-858.1 319.5,671.1 561.8,1330.3 585.9,1821.1 l -243.9,29.5 240.7,167.4 c -22.6,248 -120.9,435.5 -319.8,534.7 -305.3,152 -625.6,-78 -941,-535.2 l 77.9,-412.7 -195.7,231.2 C 18895.6,8864.4 17863,4333.3 17863,4333.3 l -81.9,-245.8 3317.7,-163.8 c 0,0 4802.5,-182.3 4611.3,705.4"
         style="fill:#50bfa5;fill-opacity:1;fill-rule:nonzero;stroke:none"
         id="path20" /><path
         d="M 27331,3901.9 H 8344.69 c -31.56,0 -57.14,24.6 -57.14,55 0,30.3 25.58,54.9 57.14,54.9 H 27331 c 31.5,0 57.1,-24.6 57.1,-54.9 0,-30.4 -25.6,-55 -57.1,-55"
         style="fill:#184655;fill-opacity:1;fill-rule:nonzero;stroke:none"
         id="path22" /><path
         d="m 20831.1,5854.2 h -7781.2 c -297.2,0 -538.1,218.5 -538.1,488.2 v 290.3 c 0,269.6 240.9,488.2 538.1,488.2 h 7781.2 v 0 c -355.9,-352.9 -362.1,-892.4 -14.3,-1252 l 14.3,-14.7"
         style="fill:#86b1f2;fill-opacity:1;fill-rule:nonzero;stroke:none"
         id="path24" /><path
         d="m 20722.1,6975.8 h -3915.6 c -269.7,0 -488.3,-218.6 -488.3,-488.3 v 0 c 0,-269.6 218.6,-488.2 488.3,-488.2 h 3915.9 c -182.9,299.5 -182.6,677.7 -0.3,976.5"
         style="fill:#fae0b2;fill-opacity:1;fill-rule:nonzero;stroke:none"
         id="path26" /><path
         d="m 20480.7,8505.7 c 17.1,29.3 -8.8,63.2 -48.2,63.2 h -6196.9 c -485.7,0 -879.4,-324.9 -879.4,-725.7 v 0 c 0,-400.9 393.7,-725.8 879.4,-725.8 h 6198.6 c 39.6,0 65.5,34.1 48.3,63.5 v 0 c -245.4,419.5 -244.8,907.2 -1.8,1324.8"
         style="fill:#355389;fill-opacity:1;fill-rule:nonzero;stroke:none"
         id="path28" /><path
         d="m 20431.3,8412.7 h -4157.7 c -307.1,0 -556.1,-248.9 -556.1,-556.1 v -41.7 c 0,-307.1 249,-556.1 556.1,-556.1 h 4166.6 c -186.3,369.8 -188.4,784.3 -8.9,1153.9"
         style="fill:#fae0b2;fill-opacity:1;fill-rule:nonzero;stroke:none"
         id="path30" /><path
         d="m 12939.1,8633.4 h 3999.1 c 354.7,0 642.2,310 642.2,692.4 v 0 c 0,382.5 -287.5,692.5 -642.2,692.5 h -3999.1 v 0 c 305.7,-383.9 317.6,-947 28.6,-1345.6 l -28.6,-39.3"
         style="fill:#fae0b2;fill-opacity:1;fill-rule:nonzero;stroke:none"
         id="path32" /><path
         d="m 17527.7,9325.8 v 0 c 0,382.5 -290.8,692.5 -649.5,692.5 h -4011.8 c -18.7,0 -33.9,16.3 -33.7,36.2 v 0 c 0.2,19.7 15.2,35.5 33.7,35.5 h 6364.1 c 395.9,0 716.9,-342.1 716.9,-764.2 v 0 c 0,-422 -321,-764.2 -716.9,-764.2 h -6364.1 c -18.5,0 -33.5,15.9 -33.7,35.6 v 0 c -0.1,19.9 15,36.2 33.7,36.2 h 4011.8 c 358.7,0 649.5,310 649.5,692.4"
         style="fill:#466eb6;fill-opacity:1;fill-rule:nonzero;stroke:none"
         id="path34" /><path
         d="m 17811.2,7831.2 h -428 c -92,0 -166.7,-28.5 -166.7,-63.7 v -5.7 h 594.7 v 69.4"
         style="fill:#ff4c16;fill-opacity:1;fill-rule:nonzero;stroke:none"
         id="path36" /><path
         d="m 18176.2,7671.3 c 0,88.3 -111.8,159.9 -249.6,159.9 h -549.3 c 104.6,0 189.4,-54.3 189.4,-121.2 l -2.6,-1713.8 303.5,220.4 309.3,-220.4 -0.7,1675.1"
         style="fill:#f47458;fill-opacity:1;fill-rule:nonzero;stroke:none"
         id="path38" /><path
         d="m 24030.4,5856.7 h -11562 c -359,0 -650.1,-291 -650.1,-650 v -546.9 c 0,-359 291.1,-650.1 650.1,-650.1 h 11562 l -6,6.3 c -494.7,514.9 -492,1329.2 6,1840.7"
         style="fill:#b75742;fill-opacity:1;fill-rule:nonzero;stroke:none"
         id="path40" /><path
         d="m 23825.7,5583.3 h -6180.8 c -359,0 -650.1,-291 -650.1,-650.1 v 0 c 0,-359 291.1,-650.1 650.1,-650.1 h 6180.7 c -227.2,402.6 -226.8,898 0.1,1300.2"
         style="fill:#fae0b2;fill-opacity:1;fill-rule:nonzero;stroke:none"
         id="path42" /><path
         d="m 20791,4929.9 h -501.3 c -107.8,0 -195.2,-87.4 -195.2,-195.2 v -17.5 h 696.5 v 212.7"
         style="fill:#13375b;fill-opacity:1;fill-rule:nonzero;stroke:none"
         id="path44" /><path
         d="m 20310.2,4929.1 c 119.8,0.1 298.7,-101.3 399.7,-226.4 l 1188.8,-1474.5 698.4,0.4 -1130.8,1402.3 c -133,165 -368.9,298.7 -526.9,298.6 l -629.2,-0.4"
         style="fill:#355389;fill-opacity:1;fill-rule:nonzero;stroke:none"
         id="path46" /><path
         d="m 9847.7,4171.6 243.6,56.9 c 0,0 197.6,-12.5 382,24.9 0,0 18.6,-48.9 26.6,-150.1 1.4,-17.4 -23.7,-104.3 -41,-107 -62.7,-9.6 -173.1,1.3 -368.9,-3.2 0,0 -308.24,-36.4 -473.2,18 -164.96,54.5 230.9,160.5 230.9,160.5"
         style="fill:#b75742;fill-opacity:1;fill-rule:nonzero;stroke:none"
         id="path48" /><path
         d="m 12539.3,8159.3 c 13.5,-141.4 132.2,-191.3 242.9,-280.7 74.3,-60.1 61.5,-222.4 4.7,-323.2 -143.8,-255.2 -21.3,-286.7 94.6,-474.2 279.2,-451.6 -585.9,-551.4 -688.5,-585 -102.7,-33.6 -172.3,-74.4 -233,-67.6 -183.1,20.2 -350.5,280.4 -443.4,521 -93,240.6 132.6,253.3 144.2,391.5 11.5,138.2 -252.5,167.9 -174.2,428.9 84.6,282.4 204.2,521.7 362.9,607.6 262.7,142 582,-6.5 654.6,-120.6 21.6,-34 32.2,-66.8 35.2,-97.7"
         style="fill:#184655;fill-opacity:1;fill-rule:nonzero;stroke:none"
         id="path50" /><path
         d="m 12559.6,5068 c 22.8,-56.6 147.9,-256.9 147.9,-256.9 l -1756.7,-17.4 -27.4,360.4 c 482.3,3.9 959.1,217.1 1403.5,369.7 11.3,-27.2 221.7,-428.3 232.7,-455.8"
         style="fill:#fae0b2;fill-opacity:1;fill-rule:nonzero;stroke:none"
         id="path52" /><path
         d="m 11314.3,6450.3 c 0,0 94.4,665.9 246.1,735 151.7,69.2 973.4,-26.6 1096.3,-101.7 123,-75.1 -81.8,-857.2 -113.2,-1075.9 -1.9,-13.1 -3.9,-26.2 -6.1,-39.2 -51.9,-315.8 -21.9,-638.9 89.5,-937.7 -449.6,-136.5 -566.2,-211.6 -1048.4,-198.2 l -179.9,1053.2 c 0,0 -143.2,509.7 -84.3,564.5"
         style="fill:#50bfa5;fill-opacity:1;fill-rule:nonzero;stroke:none"
         id="path54" /><path
         d="m 12212.9,7623.6 c 0,0 37.8,-366.6 70.2,-456.5 32.4,-90 -86.8,-272.9 -281.1,-323.5 -194.3,-50.7 -52.9,195.3 -57.5,290.4 -4.6,95 -23.4,545 -23.4,545 l 291.8,-55.4"
         style="fill:#f7a491;fill-opacity:1;fill-rule:nonzero;stroke:none"
         id="path56" /><path
         d="m 12217.5,7581.5 c -24.2,-27.5 -53.4,-52.4 -88.9,-73.3 -73.4,-43.3 -140.6,-52.8 -198.6,-39.5 -4.8,113.4 -8.9,210.3 -8.9,210.3 l 291.8,-55.4 c 0,0 1.7,-16.1 4.6,-42.1"
         style="fill:#f47458;fill-opacity:1;fill-rule:nonzero;stroke:none"
         id="path58" /><path
         d="m 12144.9,8293.2 c 0,0 114.7,-30.3 182.2,-142.2 67.4,-111.9 104.9,-435.6 -135.7,-577.4 -240.6,-141.8 -415.9,77.3 -411.5,284.8 4.4,207.4 58.6,482.4 365,434.8"
         style="fill:#f7a491;fill-opacity:1;fill-rule:nonzero;stroke:none"
         id="path60" /><path
         d="m 11706.9,7945.2 c 2.6,-53.8 30.2,-96.2 61.4,-94.6 31.3,1.6 54.6,46.6 51.9,100.4 -2.6,53.9 -30.1,96.3 -61.4,94.7 -31.3,-1.6 -54.5,-46.6 -51.9,-100.5"
         style="fill:#f7a491;fill-opacity:1;fill-rule:nonzero;stroke:none"
         id="path62" /><path
         d="m 12320.4,7862.7 c -18.9,-53.3 -5.2,-106.9 30.6,-119.8 35.9,-12.8 80.4,19.9 99.4,73.2 19,53.3 5.3,106.9 -30.6,119.8 -35.9,12.8 -80.4,-19.9 -99.4,-73.2"
         style="fill:#f7a491;fill-opacity:1;fill-rule:nonzero;stroke:none"
         id="path64" /><path
         d="m 12656.7,7083.6 c 0,0 -140.1,-73.5 -226,-278.6 -85.9,-205.1 206.7,-1251.5 269.1,-1318.5 62.4,-67.1 235,-77.5 264.4,86.3 29.5,163.9 -69.8,1459 -307.5,1510.8"
         style="fill:#3c8f7c;fill-opacity:1;fill-rule:nonzero;stroke:none"
         id="path66" /><path
         d="M 11818.8,7223.7 12060.3,5773 11120,5621.3 10821.5,6978.4 c 0,0 773.6,313.2 997.3,245.3"
         style="fill:#9bc1f9;fill-opacity:1;fill-rule:nonzero;stroke:none"
         id="path68" /><path
         d="m 10003.9,7178.9 c 89.8,35.4 187.8,44.4 282.6,25.8 176,-34.4 455.7,-105.7 568,-226.3 169.4,-182.1 326.2,-1386.7 326.2,-1386.7 l -730.9,163.9 -445.9,1423.3 v 0"
         style="fill:#9bc1f9;fill-opacity:1;fill-rule:nonzero;stroke:none"
         id="path70" /><path
         d="m 12518.6,4697.3 c -122.9,341.4 -1515.7,1584.1 -1884.4,1488.5 l 198,-757.9 c 0,0 413.8,-1233.7 819.3,-1392.9 405.5,-159.1 785.2,20.5 785.2,20.5 0,0 204.8,300.5 81.9,641.8"
         style="fill:#f7cc7f;fill-opacity:1;fill-rule:nonzero;stroke:none"
         id="path72" /><path
         d="m 12018.5,6691.1 c -17.3,-34.7 93.4,-96.6 125.6,-120.1 32.2,-23.4 165.7,0.7 165.7,0.7 0,0 -272,158 -291.3,119.4"
         style="fill:#f7a491;fill-opacity:1;fill-rule:nonzero;stroke:none"
         id="path74" /><path
         d="m 10828.5,5066.9 c 0,0 -353.9,-735.5 -355.1,-812.1 -1.7,-110.3 -511.78,-80 -401,-32.9 25.5,10.9 105.8,51.5 111.9,56.9 33,28.3 326.7,941.7 326.7,941.7 l 317.5,-153.6"
         style="fill:#f48c7f;fill-opacity:1;fill-rule:nonzero;stroke:none"
         id="path76" /><path
         d="m 10941.4,5946.8 c -17.1,18.9 -196.5,90.2 -334.6,-81.9 -138,-172 -402.8,-1511.2 -402.8,-1511.2 l 325.5,-31.9 c 0,0 810.1,1185.8 411.9,1625"
         style="fill:#f7cc7f;fill-opacity:1;fill-rule:nonzero;stroke:none"
         id="path78" /><path
         d="m 9888.52,6951 418.68,-1220.7 c 16.8,-49 58.6,-84.2 108.3,-91.2 392.6,-55.5 597.4,-83.8 597.4,-83.8 0,0 76.6,-3.9 157.8,-5 l 898.6,95.9 c 78.2,8.4 132.7,84.1 118.1,164 l -218.7,1198.6 c -13.5,74.1 -81.6,123.5 -153.4,111.4 l -864.5,-145.3 c -76.4,2 -150.8,4.1 -227.3,6.1 l -680.1,152.3 c -102.78,23 -190.07,-79.7 -154.88,-182.3"
         style="fill:#f47458;fill-opacity:1;fill-rule:nonzero;stroke:none"
         id="path80" /><path
         d="m 11717.4,6357.3 c 0,0 241.2,-44.7 323.6,-42.3 82.3,2.5 189.1,-23.5 189.1,-23.5 0,0 269.2,-633 307.8,-703.6 115.3,-210.8 435,-185.9 429.7,-10.1 -4.2,139.6 -550.2,1015.6 -695.4,1011.2 -145.1,-4.4 -599.5,90.4 -613.2,32.6 -7.3,-31 418.5,-45.5 351.3,-71.9 -41.7,-16.4 -375,21.1 -373.8,-18.2 1.2,-39.2 301.1,-42.9 333.4,-73.3 32.3,-30.5 -319.2,37.2 -317.2,-29.4 1.1,-33.5 309.7,-9.3 343.5,-60.2 14,-21.1 -304.3,54.6 -278.8,-11.3"
         style="fill:#f7a491;fill-opacity:1;fill-rule:nonzero;stroke:none"
         id="path82" /><path
         d="m 10091.1,6460.6 c -18.9,8.1 -40.9,-2.5 -45.5,-22.6 -4.8,-20.5 -5.8,-45.3 9.4,-61.7 30.3,-32.5 241.2,-63.6 242.4,-32.2 0.8,24.1 -140.7,88.1 -206.3,116.5"
         style="fill:#f7a491;fill-opacity:1;fill-rule:nonzero;stroke:none"
         id="path84" /><path
         d="m 10050.1,6378.6 c 0,0 -21.1,-79 -2.8,-79.7 18.3,-0.7 246.5,-23.3 256.7,3.9 10.1,27.1 -224.5,91.8 -253.9,75.8"
         style="fill:#f7a491;fill-opacity:1;fill-rule:nonzero;stroke:none"
         id="path86" /><path
         d="m 10040.3,6297 c 0,0 -6.5,-35.1 12.4,-55.4 18.9,-20.3 231.4,-7 239.2,26.7 7.8,33.8 -244.1,54.6 -251.6,28.7"
         style="fill:#f7a491;fill-opacity:1;fill-rule:nonzero;stroke:none"
         id="path88" /><path
         d="m 10072.7,6222.8 c 0,0 -0.3,-26.9 10.4,-38.4 10.7,-11.5 167.7,4.5 183.3,38 15.6,33.4 -175.4,35.1 -193.7,0.4"
         style="fill:#f7a491;fill-opacity:1;fill-rule:nonzero;stroke:none"
         id="path90" /><path
         d="m 10605.1,4366.2 c 0,0 -74.9,-271.3 -150.2,-450.6 -49.3,-117.5 -62,-234.5 -94.6,-293.1 -82.5,-148.2 -217.4,-154.2 -324.5,-65.2 -107.07,89.1 36.6,464.6 36.6,464.6 l 338.1,475.7 194.6,-131.4"
         style="fill:#f7a491;fill-opacity:1;fill-rule:nonzero;stroke:none"
         id="path92" /><path
         d="m 10360.3,3622.5 c 29,52 42.4,150.3 79.5,253.8 -51.7,-30 -138.5,-52.6 -185.7,-40 -173,46.3 -181.7,185.6 -181.7,185.6 0,0 -180.35,-384.9 -73.24,-473.9 107.14,-89 278.64,-73.7 361.14,74.5"
         style="fill:#f47458;fill-opacity:1;fill-rule:nonzero;stroke:none"
         id="path94" /><path
         d="m 10950.9,6974.9 276.8,-1433 -166.6,10 -48.2,3.4 -289.2,1425.6 227.2,-6"
         style="fill:#b75742;fill-opacity:1;fill-rule:nonzero;stroke:none"
         id="path96" /><path
         d="m 11915.4,4118.8 c 94.8,-174.4 283.7,-201.5 453.8,-187.2 188.1,15.8 395.2,118.7 450.8,334.6 59.4,230.7 -18.7,516.1 -155.7,697.1 -701,926.2 -706.4,1017.5 -985.5,1140.6 -301.3,132.8 -1420.2,-1778.7 -1420.2,-1778.7 l 307.3,-157 c 0,0 460.8,385.2 755.3,723 34.6,39.7 133.2,245.1 133.2,245.1 0,0 398.3,-902.2 461,-1017.5"
         style="fill:#fae0b2;fill-opacity:1;fill-rule:nonzero;stroke:none"
         id="path98" /><path
         d="m 11925.7,9689.8 c -296.3,-44.8 -389.1,-431.6 -145.6,-608.4 43.7,-31.7 73.7,-79 86,-131.6 l 42.4,-181.1 c 11.7,-49.9 59.7,-82.5 110.4,-74.8 l 112.2,16.9 c 50.7,7.7 87,53 83.4,104.1 -13.1,186.6 -31.4,254.4 30.2,336.7 180.4,240.9 -22.6,583 -319,538.2"
         style="fill:#f7cc7f;fill-opacity:1;fill-rule:nonzero;stroke:none"
         id="path100" /><path
         d="m 11990.4,8835.3 c -0.1,0 -0.2,0 -0.3,0 -14.9,-2.1 -28.7,8.3 -30.8,23.2 l -55.2,394.9 -92.5,79.2 c -11.4,9.8 -12.7,27 -2.9,38.4 9.8,11.5 27,12.8 38.4,3 l 108.2,-92.6 58,-415.3 c 2.1,-14.8 -8.1,-28.5 -22.9,-30.8"
         style="fill:#fae0b2;fill-opacity:1;fill-rule:nonzero;stroke:none"
         id="path102" /><path
         d="m 12127.8,8839.3 c 0.1,0 0.2,0 0.3,0 14.9,2.4 25,16.4 22.5,31.3 l -63.9,393.5 64.9,103 c 8,12.8 4.2,29.6 -8.5,37.6 -12.8,8.1 -29.6,4.3 -37.6,-8.5 l -76,-120.5 67.3,-413.9 c 2.4,-14.7 16.3,-24.8 31,-22.5"
         style="fill:#fae0b2;fill-opacity:1;fill-rule:nonzero;stroke:none"
         id="path104" /><path
         d="m 11864.8,8954.2 c 0.4,-1.5 0.9,-2.9 1.3,-4.4 l 42.4,-181.1 c 11.7,-49.9 59.7,-82.5 110.4,-74.8 l 112.2,16.9 c 50.7,7.7 87,53 83.4,104.1 -5.8,83 -12.7,142.5 -13.1,190.2 l -336.6,-50.9"
         style="fill:#96d9c9;fill-opacity:1;fill-rule:nonzero;stroke:none"
         id="path106" /><path
         d="m 11869.9,12572.7 -117.4,169.8 -206.4,-0.5 c -23.5,0 -36.8,26.9 -22.6,45.6 l 125.2,164.1 -64.2,196.2 c -7.3,22.3 14.1,43.3 36.3,35.5 l 194.8,-68.3 166.7,121.7 c 19,13.9 45.6,-0.1 45.1,-23.6 l -4.8,-206.3 167.2,-121 c 19.1,-13.7 14,-43.4 -8.5,-50.1 l -197.7,-59.2 -63.4,-196.4 c -7.2,-22.4 -36.9,-26.8 -50.3,-7.5"
         style="fill:#f47458;fill-opacity:1;fill-rule:nonzero;stroke:none"
         id="path108" /><path
         d="m 22740.2,12265.1 -86.2,124.7 -151.7,-0.3 c -17.2,-0.1 -27,19.7 -16.6,33.4 l 92,120.6 -47.2,144.1 c -5.4,16.4 10.4,31.8 26.7,26.1 l 143.1,-50.2 122.4,89.4 c 14,10.2 33.6,0 33.1,-17.3 l -3.5,-151.6 122.9,-88.8 c 14,-10.1 10.3,-31.9 -6.3,-36.9 l -145.2,-43.4 -46.5,-144.3 c -5.3,-16.5 -27.2,-19.7 -37,-5.5"
         style="fill:#9bc1f9;fill-opacity:1;fill-rule:nonzero;stroke:none"
         id="path110" /><path
         d="m 20323.4,14098.1 -190.6,32.1 -111.7,-162.5 -211.2,51.1 -65.6,-209.7 -241.3,47.2 -84.2,-185.7 -239.7,7.5 2.9,90.7 179.1,-5.6 88.9,195.9 232,-45.4 66.7,213.2 233,-56.3 109.1,158.6 176.7,-29.7 49.8,119.2 83.7,-35 -77.6,-185.6"
         style="fill:#f48c7f;fill-opacity:1;fill-rule:nonzero;stroke:none"
         id="path112" /><path
         d="m 14911.4,13507.2 -139.6,-42.9 -93.7,217 -211.8,-37.4 -96.7,150.9 -76.5,-49 129.4,-201.8 200.7,35.5 97.6,-225.8 210,64.5 -19.4,89"
         style="fill:#50bfa5;fill-opacity:1;fill-rule:nonzero;stroke:none"
         id="path114" /><path
         d="m 10942.2,10621.7 -40,178.8 140.7,-117.6 z m -141.3,586.6 -208.9,-127.1 216.7,-973.6 c 18.7,-84.1 114.6,-125 188.2,-80.2 v 0 c 46.4,28.3 69.4,83 57.2,135.9 l -53,228.6 219.3,133.4 181.2,-151.7 c 41.4,-34.6 100.1,-39 146.2,-11 l 3.9,2.4 c 73.7,44.8 81.5,148.8 15.3,204.1 l -766.1,639.2"
         style="fill:#f48c7f;fill-opacity:1;fill-rule:nonzero;stroke:none"
         id="path116" /><path
         d="m 23321.2,10113.7 c 19.5,70.3 82.6,107.1 151.5,87.9 71.6,-19.8 104,-83.1 85.8,-153.7 -19.1,-69 -81.2,-107.5 -152.8,-87.6 -70.2,19.5 -103.6,84.5 -84.5,153.4 z m 85.3,173.4 c 10.7,27.6 7,126.3 144.2,221.3 56.4,38.6 102.7,71.4 115.2,116.5 21.6,77.8 -60.3,115.1 -141.8,114.7 -42.1,-0.2 -76.6,33.7 -78,75.8 v 0 c -1.3,42.8 31.9,78.7 74.7,80.8 46.8,2.3 101.8,-2.2 159.6,-18.3 175,-48.6 227.7,-167.4 197.2,-277.5 -28,-100.7 -108.7,-149.7 -174.6,-191.4 -110.8,-70.4 -110.7,-148.9 -120.2,-170.8 l -176.3,48.9"
         style="fill:#f7cc7f;fill-opacity:1;fill-rule:nonzero;stroke:none"
         id="path118" /><path
         d="m 17560.8,15351 c -272.5,0 -408.6,-335.2 -213.7,-527.3 35,-34.5 55.5,-81.1 59.5,-130.1 l 13.5,-168.6 c 3.7,-46.5 42.5,-82.3 89.1,-82.3 h 103.2 c 46.6,0 85.4,35.8 89.1,82.3 13.6,169.5 6.4,233 73,298.7 194.9,192 58.9,527.3 -213.7,527.3"
         style="fill:#f7cc7f;fill-opacity:1;fill-rule:nonzero;stroke:none"
         id="path120" /><path
         d="m 17502.8,14573.8 c -0.1,0 -0.2,0 -0.3,0 -13.7,0.2 -24.6,11.4 -24.5,25.1 l 4,362.6 -72.4,83.8 c -8.9,10.3 -7.8,26 2.6,35 10.4,8.9 26,7.8 35,-2.6 l 84.6,-98 -4.2,-381.4 c -0.1,-13.6 -11.2,-24.5 -24.8,-24.5"
         style="fill:#fae0b2;fill-opacity:1;fill-rule:nonzero;stroke:none"
         id="path122" /><path
         d="m 17626.9,14558.7 c 0.1,0 0.2,0 0.3,0 13.7,0.1 24.6,11.3 24.5,25 l -4,362.6 72.4,83.8 c 8.9,10.4 7.8,26.1 -2.6,35 -10.4,9 -26,7.8 -35,-2.6 l -84.6,-98 4.2,-381.3 c 0.1,-13.6 11.2,-24.5 24.8,-24.5"
         style="fill:#fae0b2;fill-opacity:1;fill-rule:nonzero;stroke:none"
         id="path124" /><path
         d="m 17406.1,14697.8 c 0.1,-1.4 0.4,-2.8 0.5,-4.2 l 13.5,-168.6 c 3.7,-46.5 42.5,-82.3 89.1,-82.3 h 103.2 c 46.6,0 85.4,35.8 89.1,82.3 6.1,75.4 8,129.8 14.1,172.8 h -309.5"
         style="fill:#96d9c9;fill-opacity:1;fill-rule:nonzero;stroke:none"
         id="path126" /><path
         d="m 18085.2,15812.6 -235.6,-399.4 399.4,297 z"
         style="fill:#fae0b2;fill-opacity:1;fill-rule:nonzero;stroke:none"
         id="path128" /><path
         d="m 17127.5,15915.5 240.8,-410.1 -41,471.1 z"
         style="fill:#fae0b2;fill-opacity:1;fill-rule:nonzero;stroke:none"
         id="path130" /><path
         d="m 16708.7,15328.3 383.1,-150.6 -391.1,-23.5 z"
         style="fill:#fae0b2;fill-opacity:1;fill-rule:nonzero;stroke:none"
         id="path132" /><path
         d="m 17890.6,14788.5 153.6,-194.6 112.7,133.2 z"
         style="fill:#fae0b2;fill-opacity:1;fill-rule:nonzero;stroke:none"
         id="path134" /><path
         d="m 18044.2,15146.9 348.2,143.4 10.3,-153.6 z"
         style="fill:#fae0b2;fill-opacity:1;fill-rule:nonzero;stroke:none"
         id="path136" /><path
         d="m 17132.7,14757.8 -327.7,-153.6 102.4,-122.9 z"
         style="fill:#fae0b2;fill-opacity:1;fill-rule:nonzero;stroke:none"
         id="path138" /><path
         d="m 13234,11923.6 c 18.2,-8 41,-14.5 74,-23.9 87.4,-25 174.1,-14.1 199.8,75.8 24.6,86.2 -42.9,142.4 -139.2,169.9 l -65.9,18.9 z m 108.2,378.8 63.3,-18.1 c 101.4,-29 167.8,-2.8 185.9,60.6 18.5,64.6 -21.2,112.9 -108.6,137.9 -41.8,11.9 -66.6,16.3 -83.8,18.4 z m -97.9,381.4 c 53.6,-4.3 158.4,-26 254.6,-53.5 117.8,-33.7 186.8,-65.8 238.4,-120.2 50.4,-48.7 76.9,-119.3 54.8,-196.6 -21.7,-76 -86.3,-134.2 -192.8,-142.2 l -0.7,-2.5 c 90,-54.5 141.2,-148.6 109.7,-258.8 -22.1,-77.3 -75,-127.9 -140.5,-155.8 -76.2,-31.7 -188,-29.9 -357.8,18.7 -95,27.1 -164.1,53.7 -205.3,72.4 l 239.6,838.5"
         style="fill:#96d9c9;fill-opacity:1;fill-rule:nonzero;stroke:none"
         id="path140" /><path
         d="m 21511.7,12314.6 c 10.8,-47.5 -18.2,-95.3 -65.6,-106.7 -44.2,-10.7 -100.5,-19 -165.1,-21.2 -336.5,-11.4 -516.9,192.2 -526.2,469.5 -11.2,332.1 219.4,525 514,534.9 58.5,2 109.9,-2.4 151.6,-9.6 50,-8.7 82.5,-57.7 71.6,-107.3 l -0.7,-3.1 c -10.3,-46.6 -55.3,-77.3 -102.2,-68.9 -30.8,5.5 -65.6,8.6 -104.1,7.3 -174.7,-5.9 -306.9,-115.9 -299.6,-332.6 6.6,-194.9 126.3,-313.8 322.7,-307.1 32.6,1.1 66.9,5.7 98.5,12.4 47.5,10.1 94.3,-20.3 105.1,-67.6 v 0"
         style="fill:#f7cc7f;fill-opacity:1;fill-rule:nonzero;stroke:none"
         id="path142" /><path
         d="m 10575.2,7995.1 -226.6,541.3 c -18.7,44.8 3.8,96.1 49.5,112.6 l 55.2,19.9 c 45.6,16.4 95.7,-8.7 109.9,-55 l 171.8,-561.2 z m 23.8,-211 c -23.5,69.8 15.6,148.1 85.5,171.1 72.7,24 139,-11.6 166.6,-84 26.3,-73 -3.1,-145.3 -78.8,-172.6 -76.9,-27.7 -148.1,10.4 -173.3,85.5"
         style="fill:#466eb6;fill-opacity:1;fill-rule:nonzero;stroke:none"
         id="path144" /><path
         d="m 20895.9,8486.3 c 0,0 584,-254.5 635.5,-265.8 32.3,-7.1 403.5,377.6 605.8,527.9 9.4,7 45.4,58.1 55.4,63.2 120.4,60.5 -83.1,-287.9 -83.1,-287.9 0,0 -430.6,-547.6 -528,-594.5 -122.3,-58.9 -727,240 -723.4,257.3 l 37.8,299.8"
         style="fill:#f48c7f;fill-opacity:1;fill-rule:nonzero;stroke:none"
         id="path146" /><path
         d="m 20803.3,9032.9 c 25.1,172.1 144.6,538.4 34.4,684.9 -155,206 -482.4,197.1 -637.1,-0.8 -70.9,-90.8 -109.3,-202 -146.7,-310.9 -24.1,-70.3 -48.5,-141 -82.5,-207.2 -30.4,-59.2 -65.2,-133.2 -123,-169.3 -257.1,-160.1 -545.1,-263.3 -563.6,-624 -22,-427.8 446.7,-963.1 1022.2,-704 220.3,99.2 508.9,419.9 603.1,641.8 42.5,100.1 22.1,89.6 -1.3,242 -21,136.5 -125.8,308.9 -105.5,447.5"
         style="fill:#184655;fill-opacity:1;fill-rule:nonzero;stroke:none"
         id="path148" /><path
         d="m 20490.2,8777 781.8,-430.2 -184.4,-279.9 c 0,0 -588.6,224.3 -707.6,256.4 -119,32.2 -25.3,465.4 110.2,453.7"
         style="fill:#355389;fill-opacity:1;fill-rule:nonzero;stroke:none"
         id="path150" /><path
         d="m 20476.8,9150.2 c 0,0 -20.4,-297.7 -35.5,-381.2 -15.7,-86.2 -25.3,-445.3 154.1,-489.2 179.3,-43.8 112,442.4 115,529.6 2.9,87.2 20.5,370.4 20.5,370.4 l -254.1,-29.6"
         style="fill:#f7a491;fill-opacity:1;fill-rule:nonzero;stroke:none"
         id="path152" /><path
         d="m 20474.2,9114.5 c 13.5,-20 29.7,-39.3 48.9,-57.4 66.1,-62.3 134.1,-82.6 196.1,-74.5 5.6,98.7 11.7,197.2 11.7,197.2 l -254.1,-29.6 c 0,0 -1,-13.5 -2.6,-35.7"
         style="fill:#f47458;fill-opacity:1;fill-rule:nonzero;stroke:none"
         id="path154" /><path
         d="m 20662.1,9720.1 c 0,0 -109,-3.6 -192.5,-89.7 -83.4,-86.1 -183.2,-367.6 3.4,-543.7 186.7,-176.1 371.3,-24.8 409.8,161.4 38.5,186.2 63.7,451.6 -220.7,472"
         style="fill:#f7a491;fill-opacity:1;fill-rule:nonzero;stroke:none"
         id="path156" /><path
         d="m 20764.4,9711.3 c 0,0 -113.8,-293.6 -382.5,-268.8 -121.7,11.2 -149.3,-155 -149.3,-155 0,0 99.6,394.7 224.6,453.4 125,58.6 307.2,-29.6 307.2,-29.6"
         style="fill:#184655;fill-opacity:1;fill-rule:nonzero;stroke:none"
         id="path158" /><path
         d="m 20416.5,9371.5 c 6.1,-51.5 -17.1,-96.6 -51.9,-100.8 -34.8,-4.1 -68,34.3 -74.1,85.8 -6.1,51.5 17.1,96.6 51.9,100.7 34.8,4.2 68,-34.2 74.1,-85.7"
         style="fill:#f7a491;fill-opacity:1;fill-rule:nonzero;stroke:none"
         id="path160" /><path
         d="m 22414,9275 -661.8,-1352.4 c -15.8,-32.2 -10.9,-69.7 10.7,-82.4 l 483.5,-283.1 604.4,1198.4 c 0,0 -263.3,394 -362.1,541.7 -18.3,27.3 -55.9,16.1 -74.7,-22.2"
         style="fill:#b75742;fill-opacity:1;fill-rule:nonzero;stroke:none"
         id="path162" /><path
         d="m 21837.1,7967.1 575.9,1176.7 c 18.8,38.3 56.4,49.6 74.7,22.2 80.2,-120 201.5,-301.4 288.7,-431.8 l -542.5,-1075.7 -386,226.1 c -21.7,12.7 -26.6,50.2 -10.8,82.5"
         style="fill:#fae0b2;fill-opacity:1;fill-rule:nonzero;stroke:none"
         id="path164" /><path
         d="m 22151.7,8837.4 c 6.8,11.9 38.2,37.6 51.4,41.1 27.9,7.4 61.7,6.3 67.2,-11.6 8.1,-26.2 -74.4,-55.2 -74.4,-55.2 l -44.9,-65.1 c 0,0 -21,53.2 0.7,90.8"
         style="fill:#f48c7f;fill-opacity:1;fill-rule:nonzero;stroke:none"
         id="path166" /><path
         d="m 20454.1,8849.3 c 0,0 203.8,-168.3 262.2,-226.8 58.1,-58 159.7,-128.9 159.7,-128.9 l -164.8,227.9 -104.3,97.4 -152.8,30.4"
         style="fill:#f7a491;fill-opacity:1;fill-rule:nonzero;stroke:none"
         id="path168" /><path
         d="m 22983.5,6151.7 c -31.6,26.3 -60.5,101.4 -72.1,134.3 -68.5,354.5 -392.3,1313.2 -745,1313.2 -307.2,0 -1256.3,-744.3 -1700.1,-1174.4 -128.2,-124.2 -119.5,-18.8 -41,-47.8 46.9,-17.3 363.8,-544.4 414.5,-546.7 155,-7.1 298.3,96.7 427.6,168.9 197.2,110.1 334.3,235.6 448.9,406.7 290.3,433.3 399.1,688.3 486.5,854.2 0,0 82.5,-341.1 122.9,-423.4 91.4,-185.7 364.4,-643.3 471.2,-821.6 l 418.7,11.4 c 0,0 -191.1,91 -232.1,125.2"
         style="fill:#f48c7f;fill-opacity:1;fill-rule:nonzero;stroke:none"
         id="path170" /><path
         d="m 22193.7,7401.2 c 0,0 -1406.5,-655.5 -1495.3,-880.8 -88.7,-225.3 -20.5,-559.9 184.4,-628.2 204.8,-68.3 1474.8,1017.4 1474.8,1017.4 0,0 163.9,-300.5 396,-505.3 123.8,-109.2 333,-198.3 452.4,-278.2 104.5,-70.1 128,-138.3 128,-138.3 l 293.6,-13.6 c 0,0 -49.5,16.9 -138.3,136.5 -299.8,404 -995.3,1343.2 -1295.6,1290.5"
         style="fill:#f7a491;fill-opacity:1;fill-rule:nonzero;stroke:none"
         id="path172" /><path
         d="m 21650.9,7483.1 c 0,0 451.8,-487 540.6,-1128.9 0,0 -707.9,-304.9 -1056.1,-489.3 -348.2,-184.3 -737.4,6.8 -860.3,211.7 -122.9,204.8 0,781.8 0,781.8 l 723.8,112.6 652,512.1"
         style="fill:#13375b;fill-opacity:1;fill-rule:nonzero;stroke:none"
         id="path174" /><path
         d="m 22722.9,6136.9 c -36,13.7 -48.6,-168.4 -54.5,-209 -6.7,-45.7 15.1,-76.7 20.7,-80.5 14.9,-10.3 594.9,-21.8 705.8,8 7.5,2 23.2,11.4 26,13.8 81.4,71.1 -295.5,259.6 -371.4,243.8 -67.6,-14.1 -164.7,-37.8 -326.6,23.9"
         style="fill:#355389;fill-opacity:1;fill-rule:nonzero;stroke:none"
         id="path176" /><path
         d="m 20442.4,8770.2 c 0,0 -110.3,1 -228.3,-253.2 -145.1,-312.4 61.9,-1504.6 46.8,-1674.7 0,0 51.2,-58.8 348.9,-101.8 263.8,-38.1 413,150.3 413,150.3 0,0 -67.2,460.3 34.5,893.3 55.1,234.7 84.2,462.2 -133.5,673.1 -217.8,211 -481.4,313 -481.4,313"
         style="fill:#466eb6;fill-opacity:1;fill-rule:nonzero;stroke:none"
         id="path178" /><path
         d="m 23209.8,6125.6 c -36,13.7 -67,-161.7 -64.3,-204.6 2.8,-46.1 14.5,-79.6 20.1,-83.4 14.9,-10.3 595.5,-18.8 706.4,11 7.5,2 23.2,11.4 26,13.8 81.4,71.1 -337.7,248.9 -413.7,233.1 -67.5,-14 -112.6,-31.6 -274.5,30.1"
         style="fill:#466eb6;fill-opacity:1;fill-rule:nonzero;stroke:none"
         id="path180" /><path
         d="m 22821.6,9331 -1097,-1597.3 c -25.3,-36.8 -19.3,-81.7 12.5,-93.5 l 741.9,-276.5 877.4,1257.8 -437.8,725.4 c -19.7,32.7 -69.2,24.6 -97,-15.9"
         style="fill:#f47458;fill-opacity:1;fill-rule:nonzero;stroke:none"
         id="path182" /><path
         d="m 22560.8,8119.9 c -14.1,27.2 -128,-33.2 -128,-33.2 0,0 -101.4,-17.6 -108.6,-13.8 -8.1,4.2 68.1,10.6 68.1,10.6 0,0 124.6,42.6 123.2,56.5 -5.7,57.5 -83.7,-14 -144.9,-16.6 -46.6,-2 -97.3,0 -142.3,6.4 -17.9,10.1 27.7,32.7 27.7,32.7 0,0 60,26.9 50.4,42.7 -23.3,38.2 -163.4,-34.5 -192.9,-61.5 -19.8,-18.1 -44.4,-53.2 -78.8,-72.7 -149.7,-84.6 -329.1,-229.9 -540.8,-331.8 -70.1,58.9 -746.6,666 -763.6,680.8 l -369.5,-291 c 0.5,-0.4 1059.9,-807.3 1118.8,-805.4 74,2.5 515.2,468.1 634.6,579.1 18.1,16.8 131.5,29.4 162.7,25 69.3,-9.6 199.2,44.8 199.2,44.8 40.1,42.3 -147.6,-0.5 -129.8,10.6 7.9,4.8 53.7,9.5 99.4,16 46.5,6.7 88.6,33.3 94.2,46 11.1,24.9 -104.5,-10.8 -104.5,-10.8 l -96.3,-6 92.2,18.8 c 0,0 143.3,46.3 129.5,72.8"
         style="fill:#f7a491;fill-opacity:1;fill-rule:nonzero;stroke:none"
         id="path184" /><path
         d="m 20626.4,8604.6 c -119.5,122.3 -349.2,104.5 -416.2,-70 -18.6,-48.5 -17.8,-187.8 3.5,-239 84.9,-204.8 580.3,-539.4 580.3,-539.4 l 273.1,372.1 -440.7,476.3"
         style="fill:#86b1f2;fill-opacity:1;fill-rule:nonzero;stroke:none"
         id="path186" /><path
         d="m 15717.3,12163.7 c 0,15.7 19.3,116.9 19.3,116.9 0,0 -45,143.5 -49.6,143.8 -92.7,6.7 -162.6,-56.3 -147,-141 l 0.9,-2.8 c 48,-153.2 177.1,-266.9 335.1,-295.2 36,-6.5 74.1,-13.3 113.2,-20.1 -18.4,61.5 -29.7,124.3 -29.1,188.9 -135.4,1 -242.8,3.7 -242.8,9.5"
         style="fill:#f7a491;fill-opacity:1;fill-rule:nonzero;stroke:none"
         id="path188" /><path
         d="m 17284.5,12796.9 c -2.6,7.7 -814.8,-520.6 -814.8,-520.6 0,0 -346.7,-3.4 -602.8,-1.2 -0.6,-77.4 11.9,-152.6 32.2,-226.3 253.1,-47.9 541.4,-98.5 607,-93.4 122.2,9.4 735.2,315.2 735.2,315.2 0,0 45.1,520.6 43.2,526.3"
         style="fill:#355389;fill-opacity:1;fill-rule:nonzero;stroke:none"
         id="path190" /><path
         d="m 17293.6,10824.2 c -1.7,13.3 -173.3,601.8 -191.2,1128.9 -13.9,408.8 112.7,775.1 177.5,842.1 24,25 247,78.5 247,78.5 l -81.2,-134.8 c -82.5,-155.7 -104.9,-293.7 -140.7,-469.5 -103.9,-509.7 362.8,-1529.6 339.1,-1536.2 -26.5,-7.4 -343.9,38.8 -350.5,91"
         style="fill:#466eb6;fill-opacity:1;fill-rule:nonzero;stroke:none"
         id="path192" /><path
         d="m 15513.5,12881.4 -142.5,-93 426.2,-717.4 134,582.5 -417.7,227.9"
         style="fill:#9bc1f9;fill-opacity:1;fill-rule:nonzero;stroke:none"
         id="path194" /><path
         d="m 15601.7,12994.3 179.1,-595.4 143.5,257.2 z"
         style="fill:#9bc1f9;fill-opacity:1;fill-rule:nonzero;stroke:none"
         id="path196" /><path
         d="m 16784.8,13063 137.8,-499.9 -1015.3,92.1 z"
         style="fill:#9bc1f9;fill-opacity:1;fill-rule:nonzero;stroke:none"
         id="path198" /><path
         d="m 16205.7,10947.8 c 0,0 -431.5,-527.1 -432.7,-603.7 -1.7,-110.3 -511.7,-80.1 -401,-32.9 25.5,10.9 105.8,51.5 111.9,56.8 33,28.4 373,693.9 373,693.9 l 348.8,-114.1"
         style="fill:#f7a491;fill-opacity:1;fill-rule:nonzero;stroke:none"
         id="path200" /><path
         d="m 15147.3,10260.9 328.1,102 c 0,0 113.2,-57.6 297.6,-20.2 0,0 48.1,-77.3 56.1,-178.4 1.4,-17.4 10,-69.2 -7.3,-71.8 -62.7,-9.7 -236.3,-5.6 -432.1,-10.1 0,0 -263.9,-3.1 -428.8,51.4 -165,54.4 186.4,127.1 186.4,127.1"
         style="fill:#07345a;fill-opacity:1;fill-rule:nonzero;stroke:none"
         id="path202" /><path
         d="m 18295,10821.9 c 0,0 -388.2,88.7 -751,348.3 -419.9,300.2 -892.2,612.6 -1078.8,587.2 -150.3,-20.5 -1024.2,-1222.2 -1024.2,-1222.2 l 423.3,-184.4 764.7,785.2 c 0,0 781.2,-805.3 1037.9,-860.3 584.5,-125.2 771.3,305.8 628.1,546.2"
         style="fill:#b75742;fill-opacity:1;fill-rule:nonzero;stroke:none"
         id="path204" /><path
         d="m 15351,12788.3 588.7,-1247.3 c 2.7,-5.6 7.8,-9.8 13.9,-11.2 l 393.2,-109.3 -502.5,1235.5 -468.1,160.4 c -17.2,5.9 -32.9,-11.8 -25.2,-28.1"
         style="fill:#f7cc7f;fill-opacity:1;fill-rule:nonzero;stroke:none"
         id="path206" /><path
         d="m 17354.6,13966.6 c 0,0 108.7,148.3 230.1,0 0,0 72.3,53.6 136.7,-17.3 0,0 135.2,60.1 196,-145.7 0,0 70.6,22.8 91.1,-62 20.4,-84.7 -16,-147.6 -16,-147.6 0,0 44.5,-25.3 36.1,-106.7 -7.2,-69.2 -61.5,-86.5 -61.5,-86.5 0,0 -0.7,-115.1 -45.5,-155.5 -44.8,-40.3 -113.7,-32.4 -113.7,-32.4 0,0 -10,-63.7 -68,-65.5 -58,-1.8 -135.9,43.8 -196.9,11.1 -61,-32.7 -230.8,-27.9 -230.8,-27.9 0,0 -197.5,59.6 -165.8,257.7 0,0 -109.5,76.3 -37,193.6 0,0 -83.9,158.5 27.8,272.5 111.8,114 217.4,112.2 217.4,112.2"
         style="fill:#07345a;fill-opacity:1;fill-rule:nonzero;stroke:none"
         id="path208" /><path
         d="m 16755.3,9272 c 0,0 23.9,-648.6 38.7,-758.5 14.8,-109.3 -275.2,-438.8 -238.2,-324.2 8.6,26.4 30.5,113.6 30.6,121.7 0.1,43.5 -107.6,783.5 -107.6,783.5 l 276.5,177.5"
         style="fill:#f7a491;fill-opacity:1;fill-rule:nonzero;stroke:none"
         id="path210" /><path
         d="m 16446.4,7986.7 138.2,314.5 c 0,0 117.7,47.7 210.5,211.4 0,0 89.8,-14.4 171.4,-74.7 14.1,-10.4 58.8,-37.8 49.5,-52.6 -33.9,-53.7 -150.9,-182 -275.9,-332.8 0,0 -170.7,-201.1 -320,-289.9 -149.3,-88.8 26.3,224.1 26.3,224.1"
         style="fill:#07345a;fill-opacity:1;fill-rule:nonzero;stroke:none"
         id="path212" /><path
         d="m 16472,8596.1 c 30.3,30.8 -307,1690.2 -143.4,1850.3 163.5,160.2 1256.3,396 1256.3,396 l 143.4,505.3 c 0,0 456.9,-134 641.8,-409.7 101.2,-150.8 -2.2,-494.6 -20.5,-532.6 -156,-325 -541.6,-341.3 -822.2,-338.5 -258,2.7 -716.3,6.3 -716.3,6.3 l -1.1,-1466.9 c 0,0 -112.7,-27.3 -201.5,-23.9 -121.4,4.7 -136.5,13.7 -136.5,13.7"
         style="fill:#f47458;fill-opacity:1;fill-rule:nonzero;stroke:none"
         id="path214" /><path
         d="m 17485,12838.2 295.9,106.4 c 0,0 8.9,-0.5 11.6,-0.2 31.8,4 381,-1138.5 495,-1570.8 113.9,-432.2 -35.4,-350.2 -35.4,-350.2 0,0 -261,-162.7 -564.8,-174.1 -315.8,-12 -252.6,368.7 -252.6,368.7 0,0 -166.3,794.6 -146.8,1065.1 19.5,270.5 197.1,555.1 197.1,555.1"
         style="fill:#ffffff;fill-opacity:1;fill-rule:nonzero;stroke:none"
         id="path216" /><path
         d="m 17489.7,13070.6 -1.2,-145.7 -0.2,-25.8 c 0,0 -20.1,-249.4 51.3,-287.9 71.5,-38.5 241.1,333.3 241.1,333.3 l -76.8,423.1 -214.2,-297"
         style="fill:#f7a491;fill-opacity:1;fill-rule:nonzero;stroke:none"
         id="path218" /><path
         d="m 17728.8,13230 c -35.7,-152.6 -153.2,-258.5 -240.2,-304.8 l 1.1,145.4 214.2,296.9 24.9,-137.5"
         style="fill:#f47458;fill-opacity:1;fill-rule:nonzero;stroke:none"
         id="path220" /><path
         d="m 17495.7,13797.2 c -138.7,28.9 -269.2,-77.3 -272.1,-216.9 -1.3,-60.7 0.2,-136.6 9.1,-218.7 21.4,-197.4 147.6,-376.1 237.1,-364.7 89.4,11.3 320.4,170.1 293.9,450.8 -16.4,173.3 -122.4,319.2 -268,349.5"
         style="fill:#f7a491;fill-opacity:1;fill-rule:nonzero;stroke:none"
         id="path222" /><path
         d="m 17700.6,13417.3 c 5.5,-43.5 38.8,-75.1 74.3,-70.5 35.5,4.5 59.8,43.3 54.3,86.8 -5.5,43.4 -38.7,75 -74.3,70.5 -35.5,-4.5 -59.8,-43.4 -54.3,-86.8"
         style="fill:#f7a491;fill-opacity:1;fill-rule:nonzero;stroke:none"
         id="path224" /><path
         d="m 17095.8,13846.1 c -83.1,-84.9 -101.3,-200.2 -40.8,-257.5 60.6,-57.3 177,-35 260.1,49.9 83.1,84.9 101.4,200.2 40.8,257.5 -60.5,57.3 -177,35 -260.1,-49.9"
         style="fill:#07345a;fill-opacity:1;fill-rule:nonzero;stroke:none"
         id="path226" /><path
         d="m 17344.9,13816.7 c 4.1,-31.8 45.7,-52.7 93.1,-46.7 47.4,6 82.5,36.7 78.5,68.5 -4.1,31.8 -45.7,52.7 -93.1,46.7 -47.4,-6 -82.5,-36.7 -78.5,-68.5"
         style="fill:#07345a;fill-opacity:1;fill-rule:nonzero;stroke:none"
         id="path228" /><path
         d="m 17120.8,13539.6 c 5.2,-40.8 42.1,-69.8 82.6,-64.7 40.4,5.1 69,42.4 63.8,83.3 -5.2,40.9 -42.2,69.9 -82.6,64.7 -40.4,-5.1 -69,-42.4 -63.8,-83.3"
         style="fill:#07345a;fill-opacity:1;fill-rule:nonzero;stroke:none"
         id="path230" /><path
         d="m 17780.7,12944.5 c 0,0 289.7,47 387,5.6 61.9,-26.3 140.7,-551.6 140.7,-551.6 0,0 3.2,-531.2 39.4,-681 122.8,-507.7 294.2,-952.4 275,-977.5 -126,-103.6 -653,-199.6 -693.1,-150.2 -442.2,544.9 -149,2354.7 -149,2354.7"
         style="fill:#466eb6;fill-opacity:1;fill-rule:nonzero;stroke:none"
         id="path232" /><path
         d="m 18264.3,12406 c 0,0 -290.1,-896.6 -417,-990.6 -126.9,-94 -697.7,785.8 -697.7,785.8 0,0 -252.6,143.4 -270.6,144.9 -71.6,5.9 149.4,42.8 149.4,42.8 l 27.4,228.8 c 0,0 10.8,-1.7 76.8,-76 89.2,-100.4 166.7,-256.3 203.1,-282.5 l 382.4,-290.2 194.6,621.4 351.6,-184.4"
         style="fill:#f7a491;fill-opacity:1;fill-rule:nonzero;stroke:none"
         id="path234" /><path
         d="m 15844.4,12656 120,11.7 514.7,-1280.7 -132.3,33.5 -502.4,1235.5"
         style="fill:#fae0b2;fill-opacity:1;fill-rule:nonzero;stroke:none"
         id="path236" /><path
         d="m 16988.9,12968.1 309.7,-1507.9 c 5.1,-24.9 -13.5,-48.4 -38.9,-49.1 l -780.6,-24.2 -514.7,1280.8 971.1,331 c 23.4,7.9 48.4,-6.4 53.4,-30.6"
         style="fill:#f7cc7f;fill-opacity:1;fill-rule:nonzero;stroke:none"
         id="path238" /><path
         d="m 17303.3,12313.8 -99,-216.7 c 0,0 486.5,-800.6 636.7,-756.2 150.2,44.3 433.5,911.5 477.9,1150.5 44.4,238.9 -47.8,436.9 -170.7,467.7 -122.9,30.7 -218.5,-177.6 -256,-266.3 -37.6,-88.8 -174.1,-723.8 -174.1,-723.8 l -414.8,344.8"
         style="fill:#86b1f2;fill-opacity:1;fill-rule:nonzero;stroke:none"
         id="path240" /><path
         d="m 15573.7,12301.9 c 0,0 -18.2,32 -24.1,51.6 -5.8,19.5 113.9,87.5 161.3,56.5 47.4,-31 -79.2,-78.1 -137.2,-108.1"
         style="fill:#f7a491;fill-opacity:1;fill-rule:nonzero;stroke:none"
         id="path242" /><path
         d="m 15578.7,12223.6 c 0,0 -30.1,31.5 -35.9,51.1 -5.9,19.5 153.5,99.7 200.9,68.7 47.4,-31 -107,-89.9 -165,-119.8"
         style="fill:#f7a491;fill-opacity:1;fill-rule:nonzero;stroke:none"
         id="path244" /><path
         d="m 15633.3,12168.9 c 0,0 -30.1,31.6 -35.9,51.1 -5.9,19.6 113.9,87.5 161.3,56.6 47.4,-31 -67.4,-77.7 -125.4,-107.7"
         style="fill:#f7a491;fill-opacity:1;fill-rule:nonzero;stroke:none"
         id="path246" /><path
         d="m 17081.4,12528.9 h -24.9 c -11.8,0 -23.5,1.3 -35.1,3.8 -45.9,10 -171.5,34.9 -181.3,9.9 -11.9,-30.8 180.9,-66.6 180.9,-66.6 0,0 -211.6,27.3 -211.6,-8.5 0,-35.9 215.1,-54.7 215.1,-54.7 0,0 -187.8,6.9 -191.2,-13.6 -3.4,-20.5 230.4,-78.5 230.4,-78.5 0,0 -189.4,40.9 -208.2,17 -18.8,-23.9 297,-139.1 297,-139.1 l -71.1,330.3"
         style="fill:#f7a491;fill-opacity:1;fill-rule:nonzero;stroke:none"
         id="path248" /><path
         d="m 15633.3,12168.9 c 0,0 103.5,58.5 130.9,40.2 27.3,-18.2 -88.8,-105.8 -88.8,-105.8 l 13.9,-32 c 0,0 -74.2,57.4 -56,97.6"
         style="fill:#f7a491;fill-opacity:1;fill-rule:nonzero;stroke:none"
         id="path250" /></g></g></svg>
